<?xml version="1.0" encoding="utf-8"?>
<svg xmlns="http://www.w3.org/2000/svg" viewBox="0 0 500 500" xmlns:bx="https://boxy-svg.com">
  <defs>
    <path id="text-path-0" d="M -34.44047546386719 359.6576461791992 Q -14.4464111328125 268.0248718261719 5.5476531982421875 359.6576461791992"/>
    <bx:export>
      <bx:file format="svg" normalization="web-secure-static" path="Zana_Logo.svg"/>
      <bx:file format="svg" href="#object-4" path="Inverted Solo Z.svg" normalization="{&quot;removeBoxySVGMetadata&quot;:true,&quot;removeForeignMetadata&quot;:true,&quot;removeAnimations&quot;:true,&quot;resetTransformOrigins&quot;:true}"/>
      <bx:file format="svg" href="#object-3" path="Solo Z.svg" normalization="{&quot;removeBoxySVGMetadata&quot;:true,&quot;removeForeignMetadata&quot;:true,&quot;removeAnimations&quot;:true,&quot;resetTransformOrigins&quot;:true}"/>
      <bx:file format="svg" href="#object-2" path="Inverted Logo.svg" normalization="{&quot;removeBoxySVGMetadata&quot;:true,&quot;removeForeignMetadata&quot;:true,&quot;removeAnimations&quot;:true,&quot;resetTransformOrigins&quot;:true}"/>
      <bx:file format="svg" href="#object-0" path="Logo.svg" normalization="{&quot;removeBoxySVGMetadata&quot;:true,&quot;removeForeignMetadata&quot;:true,&quot;removeAnimations&quot;:true,&quot;resetTransformOrigins&quot;:true}"/>
    </bx:export>
  </defs>
  <path d="M 151.071 255.711 L 147.439 259.038 L 143.81 262.362 L 140.179 265.69 C 140.179 265.69 138.573 267.209 138.068 268.09 C 135.435 272.673 144.311 272.96 147.461 268.075 C 147.706 267.694 147.803 267.462 147.997 267.165 C 148.194 266.867 148.406 266.574 148.634 266.288 C 148.864 266.002 149.11 265.72 149.369 265.444 C 149.627 265.169 149.902 264.903 150.191 264.643 C 150.476 264.383 150.775 264.13 151.087 263.889 C 151.401 263.643 151.725 263.408 152.062 263.182 C 152.396 262.955 152.741 262.737 153.095 262.532 C 153.451 262.322 153.814 262.125 154.19 261.938 C 154.562 261.75 154.941 261.575 155.327 261.409 C 155.716 261.244 156.107 261.091 156.506 260.952 C 156.906 260.81 157.308 260.681 157.716 260.565 C 158.123 260.449 158.538 260.347 158.954 260.256 C 159.368 260.166 159.784 260.091 160.203 260.03 C 160.621 259.97 161.045 259.922 161.463 259.892 C 161.886 259.859 162.303 259.844 162.725 259.844 C 163.144 259.844 163.555 259.859 163.951 259.892 C 164.346 259.922 164.73 259.97 165.101 260.03 C 165.472 260.091 165.834 260.166 166.182 260.256 C 166.526 260.347 166.857 260.449 167.178 260.565 C 167.497 260.681 167.801 260.81 168.09 260.952 C 168.381 261.091 168.656 261.244 168.916 261.409 C 169.175 261.575 169.417 261.75 169.646 261.938 C 169.874 262.125 170.086 262.322 170.28 262.532 C 170.477 262.737 170.655 262.955 170.816 263.182 C 170.976 263.408 171.118 263.643 171.24 263.889 C 171.365 264.13 171.472 264.383 171.56 264.643 C 171.646 264.903 171.712 265.169 171.761 265.444 C 171.81 265.718 171.836 266.002 171.845 266.288 C 171.853 266.574 171.841 266.867 171.808 267.165 C 171.773 267.462 171.717 267.767 171.639 268.075 C 171.562 268.387 171.463 268.699 171.342 269.011 C 171.342 269.011 165.492 284.184 165.144 285.085 C 164.794 285.989 164.895 285.813 160.934 285.813 C 156.974 285.813 155.817 285.813 155.817 285.813 C 155.817 285.813 101.364 285.813 97.017 285.813 C 92.67 285.813 92.476 285.806 96.125 282.489 C 98.921 279.949 99.756 279.163 99.756 279.163 L 103.387 275.839 L 107.019 272.511 L 117.908 262.539 L 121.541 259.212 L 125.171 255.889 L 130.705 250.819 L 130.707 250.819 L 136.047 245.929 L 139.679 242.601 L 143.307 239.278 L 146.939 235.951 C 146.939 235.951 148.618 234.441 149.051 233.55 C 152.113 227.264 142.737 226.646 139.658 233.564 C 139.483 233.957 139.316 234.179 139.12 234.475 C 138.923 234.773 138.713 235.067 138.483 235.353 C 138.254 235.639 138.007 235.922 137.749 236.194 C 137.491 236.471 137.217 236.738 136.928 236.997 C 136.641 237.258 136.343 237.511 136.029 237.753 C 135.718 237.996 135.392 238.232 135.057 238.458 C 134.723 238.686 134.378 238.902 134.023 239.11 C 133.667 239.317 133.302 239.515 132.929 239.7 C 132.557 239.888 132.176 240.066 131.789 240.23 C 131.402 240.394 131.012 240.548 130.613 240.688 C 130.214 240.83 129.811 240.959 129.401 241.075 C 128.995 241.189 128.579 241.292 128.166 241.383 C 127.75 241.474 127.333 241.55 126.916 241.609 C 126.495 241.672 126.073 241.717 125.655 241.749 C 125.234 241.78 124.814 241.794 124.393 241.794 C 123.974 241.794 123.565 241.78 123.167 241.749 C 122.772 241.717 122.387 241.672 122.016 241.609 C 121.645 241.55 121.285 241.474 120.938 241.383 C 120.59 241.292 120.26 241.189 119.939 241.075 C 119.622 240.959 119.319 240.83 119.027 240.688 C 118.737 240.548 118.461 240.394 118.201 240.23 C 117.943 240.066 117.701 239.888 117.473 239.7 C 117.244 239.515 117.032 239.317 116.839 239.11 C 116.642 238.902 116.463 238.686 116.302 238.458 C 116.141 238.232 116.002 237.996 115.877 237.753 C 115.754 237.511 115.646 237.258 115.559 236.997 C 115.473 236.738 115.406 236.471 115.357 236.194 C 115.308 235.922 115.281 235.639 115.272 235.353 C 115.265 235.067 115.276 234.773 115.31 234.475 C 115.345 234.179 115.401 233.873 115.478 233.564 C 115.557 233.256 115.656 232.942 115.777 232.628 C 115.777 232.628 121.346 218.187 121.693 217.286 C 122.042 216.381 122.224 215.828 126.184 215.828 C 130.144 215.828 131.302 215.828 131.302 215.828 C 131.302 215.828 185.753 215.828 190.1 215.828 C 194.447 215.828 194.641 215.834 190.994 219.151 C 188.198 221.691 187.362 222.477 187.362 222.477 L 183.731 225.801 L 180.1 229.129 L 169.209 239.1 L 165.577 242.428 L 161.947 245.751 L 156.413 250.821 L 156.412 250.821 L 151.071 255.711 Z M 161.607 285.828 C 161.395 285.828 161.862 285.828 161.607 285.828 Z M 214.556 287.624 C 214.157 287.624 213.759 287.618 213.364 287.605 C 212.969 287.592 212.577 287.572 212.186 287.546 C 211.795 287.52 211.406 287.488 211.02 287.449 C 210.634 287.41 210.251 287.365 209.869 287.313 C 209.488 287.262 209.109 287.203 208.732 287.139 C 208.355 287.074 207.98 287.003 207.608 286.925 C 207.235 286.847 206.865 286.763 206.498 286.672 C 206.13 286.582 205.764 286.485 205.401 286.381 C 205.037 286.278 204.676 286.168 204.317 286.052 C 203.958 285.936 203.601 285.813 203.247 285.684 C 202.892 285.555 202.54 285.419 202.191 285.277 C 201.841 285.134 201.493 284.986 201.148 284.83 C 200.802 284.675 200.459 284.513 200.118 284.345 C 199.777 284.177 199.439 284.003 199.103 283.822 C 198.766 283.641 198.432 283.453 198.1 283.259 C 197.768 283.065 197.438 282.864 197.111 282.657 C 196.783 282.45 196.46 282.239 196.141 282.024 C 195.822 281.808 195.507 281.588 195.196 281.364 C 194.885 281.14 194.578 280.911 194.276 280.679 C 193.973 280.446 193.674 280.208 193.38 279.967 C 193.086 279.725 192.796 279.48 192.51 279.23 C 192.224 278.98 191.942 278.725 191.665 278.467 C 191.387 278.208 191.113 277.945 190.844 277.678 C 190.575 277.411 190.309 277.139 190.048 276.863 C 189.787 276.587 189.53 276.307 189.277 276.022 C 189.025 275.738 188.776 275.449 188.531 275.156 C 188.286 274.863 188.046 274.566 187.81 274.264 C 187.574 273.962 187.341 273.656 187.113 273.346 C 186.885 273.036 186.661 272.722 186.442 272.403 C 186.222 272.084 186.006 271.761 185.795 271.434 C 185.583 271.106 185.376 270.775 185.173 270.439 C 184.969 270.103 184.77 269.763 184.575 269.418 C 184.38 269.074 184.191 268.727 184.008 268.378 C 183.825 268.029 183.648 267.677 183.477 267.324 C 183.306 266.97 183.142 266.614 182.983 266.255 C 182.825 265.897 182.672 265.536 182.526 265.173 C 182.38 264.81 182.24 264.444 182.105 264.077 C 181.971 263.709 181.843 263.338 181.721 262.966 C 181.599 262.594 181.484 262.219 181.374 261.842 C 181.264 261.465 181.16 261.086 181.063 260.704 C 180.966 260.322 180.875 259.939 180.789 259.553 C 180.704 259.167 180.625 258.778 180.552 258.387 C 180.479 257.996 180.412 257.604 180.351 257.209 C 180.291 256.813 180.236 256.416 180.187 256.016 C 180.138 255.616 180.096 255.214 180.059 254.809 C 180.022 254.405 179.991 253.998 179.967 253.589 C 179.943 253.18 179.925 252.768 179.912 252.355 C 179.9 251.941 179.894 251.524 179.894 251.106 C 179.894 250.687 179.9 250.271 179.912 249.857 C 179.925 249.443 179.943 249.031 179.967 248.622 C 179.991 248.212 180.022 247.805 180.059 247.401 C 180.096 246.996 180.138 246.593 180.187 246.193 C 180.236 245.793 180.291 245.395 180.351 244.999 C 180.412 244.603 180.479 244.21 180.552 243.819 C 180.625 243.427 180.704 243.038 180.789 242.652 C 180.875 242.265 180.966 241.88 181.063 241.498 C 181.16 241.116 181.264 240.736 181.374 240.358 C 181.484 239.98 181.599 239.605 181.721 239.232 C 181.843 238.858 181.971 238.487 182.105 238.119 C 182.24 237.75 182.38 237.383 182.526 237.019 C 182.672 236.655 182.825 236.293 182.983 235.934 C 183.142 235.574 183.306 235.217 183.477 234.862 C 183.648 234.507 183.825 234.154 184.008 233.804 C 184.191 233.453 184.38 233.104 184.575 232.758 C 184.77 232.412 184.969 232.07 185.173 231.733 C 185.376 231.396 185.583 231.063 185.795 230.735 C 186.006 230.406 186.222 230.082 186.442 229.763 C 186.661 229.443 186.885 229.128 187.113 228.817 C 187.341 228.506 187.573 228.2 187.81 227.898 C 188.046 227.596 188.286 227.298 188.531 227.005 C 188.775 226.712 189.024 226.423 189.277 226.139 C 189.53 225.854 189.787 225.574 190.048 225.298 C 190.309 225.022 190.574 224.751 190.844 224.485 C 191.113 224.218 191.386 223.956 191.664 223.698 C 191.942 223.44 192.224 223.186 192.51 222.937 C 192.796 222.687 193.086 222.442 193.38 222.202 C 193.674 221.961 193.973 221.725 194.276 221.494 C 194.578 221.262 194.885 221.035 195.196 220.812 C 195.507 220.589 195.822 220.371 196.141 220.157 C 196.46 219.943 196.783 219.733 197.111 219.528 C 197.438 219.323 197.767 219.124 198.099 218.932 C 198.431 218.74 198.765 218.554 199.101 218.375 C 199.437 218.196 199.776 218.023 200.117 217.857 C 200.458 217.69 200.801 217.53 201.147 217.376 C 201.492 217.222 201.84 217.074 202.19 216.933 C 202.54 216.792 202.892 216.657 203.247 216.529 C 203.601 216.401 203.958 216.279 204.317 216.164 C 204.676 216.048 205.037 215.939 205.401 215.837 C 205.764 215.734 206.13 215.638 206.498 215.548 C 206.865 215.458 207.235 215.375 207.608 215.298 C 207.98 215.221 208.355 215.151 208.732 215.087 C 209.109 215.023 209.488 214.965 209.869 214.914 C 210.25 214.862 210.634 214.817 211.02 214.779 C 211.406 214.74 211.795 214.708 212.186 214.683 C 212.576 214.657 212.969 214.638 213.364 214.625 C 213.759 214.612 214.156 214.606 214.556 214.606 C 214.835 214.606 215.113 214.609 215.389 214.615 C 215.665 214.621 215.94 214.63 216.213 214.643 C 216.486 214.655 216.758 214.671 217.028 214.689 C 217.298 214.708 217.567 214.729 217.834 214.754 C 218.101 214.778 218.367 214.806 218.631 214.837 C 218.896 214.868 219.158 214.902 219.42 214.939 C 219.681 214.976 219.941 215.016 220.199 215.059 C 220.457 215.102 220.714 215.148 220.969 215.198 C 221.224 215.247 221.477 215.3 221.73 215.355 C 221.982 215.411 222.232 215.469 222.482 215.531 C 222.731 215.592 222.978 215.657 223.224 215.725 C 223.47 215.793 223.715 215.864 223.958 215.938 C 224.201 216.012 224.443 216.089 224.683 216.169 C 224.923 216.249 225.162 216.332 225.399 216.419 C 225.636 216.505 225.871 216.594 226.105 216.687 C 226.339 216.779 226.572 216.874 226.803 216.973 C 227.034 217.071 227.264 217.172 227.491 217.276 C 227.718 217.379 227.942 217.485 228.165 217.593 C 228.387 217.701 228.608 217.811 228.826 217.924 C 229.045 218.037 229.261 218.152 229.475 218.269 C 229.689 218.387 229.902 218.506 230.112 218.628 C 230.322 218.75 230.529 218.875 230.735 219.001 C 230.941 219.128 231.145 219.257 231.346 219.389 C 231.548 219.52 231.747 219.654 231.945 219.79 C 232.142 219.926 232.338 220.064 232.531 220.205 C 232.724 220.345 232.915 220.488 233.104 220.633 C 233.293 220.779 233.48 220.926 233.664 221.076 C 233.849 221.226 234.031 221.379 234.212 221.533 C 234.392 221.688 234.571 221.845 234.747 222.004 C 234.924 222.164 235.098 222.325 235.27 222.489 C 235.442 222.653 235.612 222.82 235.78 222.988 C 235.948 223.157 236.113 223.328 236.277 223.501 C 236.277 223.501 236.277 218.509 236.277 218.215 C 236.277 217.474 236.291 217.041 236.291 216.787 C 236.291 216.497 236.286 216.464 236.726 216.448 C 237.043 216.436 237.825 216.453 238.443 216.453 C 239.445 216.453 240.61 216.453 240.61 216.453 C 240.61 216.453 252.963 216.453 253.283 216.453 C 253.603 216.453 253.607 216.462 253.607 216.824 C 253.607 217.186 253.607 225.119 253.607 225.119 C 253.607 225.119 253.607 285.467 253.607 285.624 C 253.607 285.781 253.607 285.776 253.461 285.776 C 253.315 285.776 251.441 285.776 251.441 285.776 L 236.277 285.776 L 236.277 278.728 C 236.113 278.902 235.948 279.073 235.78 279.241 C 235.612 279.41 235.442 279.576 235.27 279.74 C 235.098 279.904 234.924 280.066 234.747 280.225 C 234.571 280.385 234.392 280.542 234.212 280.696 C 234.031 280.851 233.849 281.003 233.664 281.153 C 233.48 281.303 233.293 281.45 233.104 281.595 C 232.915 281.741 232.724 281.884 232.531 282.024 C 232.338 282.165 232.142 282.303 231.945 282.439 C 231.747 282.576 231.548 282.71 231.346 282.841 C 231.145 282.973 230.941 283.102 230.735 283.228 C 230.529 283.355 230.322 283.48 230.112 283.602 C 229.902 283.724 229.689 283.843 229.475 283.96 C 229.261 284.078 229.045 284.193 228.826 284.306 C 228.608 284.418 228.387 284.529 228.165 284.637 C 227.942 284.745 227.718 284.851 227.491 284.954 C 227.264 285.057 227.034 285.158 226.803 285.257 C 226.572 285.355 226.339 285.451 226.105 285.543 C 225.871 285.636 225.636 285.725 225.399 285.811 C 225.162 285.898 224.923 285.981 224.683 286.061 C 224.443 286.141 224.201 286.218 223.958 286.292 C 223.715 286.366 223.47 286.437 223.224 286.504 C 222.978 286.572 222.731 286.637 222.482 286.698 C 222.232 286.76 221.982 286.818 221.73 286.874 C 221.477 286.929 221.224 286.982 220.969 287.031 C 220.714 287.081 220.457 287.127 220.199 287.17 C 219.941 287.213 219.681 287.253 219.42 287.29 C 219.159 287.328 218.896 287.362 218.632 287.393 C 218.368 287.424 218.102 287.452 217.835 287.476 C 217.568 287.501 217.299 287.522 217.029 287.541 C 216.759 287.559 216.487 287.575 216.214 287.587 C 215.94 287.6 215.666 287.609 215.389 287.615 C 215.113 287.621 214.835 287.624 214.556 287.624 Z M 214.602 269.948 C 214.815 269.948 215.026 269.945 215.237 269.938 C 215.447 269.932 215.656 269.922 215.863 269.908 C 216.071 269.895 216.278 269.879 216.483 269.858 C 216.688 269.839 216.892 269.815 217.095 269.788 C 217.298 269.762 217.499 269.731 217.699 269.698 C 217.9 269.665 218.099 269.629 218.297 269.589 C 218.495 269.549 218.692 269.506 218.887 269.459 C 219.083 269.413 219.277 269.363 219.471 269.309 C 219.664 269.256 219.856 269.2 220.047 269.14 C 220.238 269.08 220.427 269.017 220.616 268.95 C 220.804 268.884 220.992 268.814 221.178 268.74 C 221.364 268.667 221.549 268.59 221.733 268.51 C 221.917 268.431 222.099 268.348 222.281 268.261 C 222.462 268.175 222.642 268.085 222.821 267.992 C 223 267.899 223.177 267.803 223.354 267.703 C 223.53 267.603 223.705 267.5 223.879 267.393 C 224.052 267.287 224.224 267.178 224.393 267.067 C 224.563 266.956 224.73 266.843 224.895 266.727 C 225.06 266.612 225.223 266.494 225.383 266.374 C 225.544 266.255 225.702 266.133 225.858 266.008 C 226.014 265.884 226.168 265.757 226.32 265.628 C 226.471 265.499 226.621 265.368 226.768 265.235 C 226.915 265.101 227.06 264.966 227.203 264.828 C 227.346 264.691 227.486 264.551 227.625 264.409 C 227.763 264.267 227.9 264.123 228.034 263.976 C 228.168 263.83 228.299 263.681 228.429 263.531 C 228.558 263.38 228.686 263.227 228.811 263.072 C 228.936 262.916 229.058 262.759 229.179 262.599 C 229.299 262.439 229.418 262.277 229.534 262.113 C 229.65 261.949 229.764 261.782 229.876 261.614 C 229.988 261.445 230.097 261.275 230.205 261.102 C 230.312 260.929 230.417 260.753 230.52 260.576 C 230.623 260.398 230.723 260.22 230.819 260.04 C 230.916 259.86 231.009 259.679 231.099 259.497 C 231.189 259.314 231.276 259.131 231.359 258.946 C 231.443 258.761 231.523 258.575 231.6 258.388 C 231.677 258.201 231.751 258.012 231.822 257.823 C 231.893 257.633 231.96 257.442 232.025 257.25 C 232.089 257.057 232.15 256.864 232.208 256.669 C 232.266 256.474 232.32 256.278 232.372 256.081 C 232.423 255.884 232.472 255.686 232.517 255.487 C 232.562 255.288 232.603 255.087 232.642 254.885 C 232.68 254.683 232.716 254.48 232.748 254.276 C 232.78 254.071 232.809 253.866 232.835 253.659 C 232.86 253.452 232.883 253.244 232.902 253.035 C 232.922 252.826 232.938 252.615 232.951 252.403 C 232.963 252.191 232.973 251.978 232.979 251.764 C 232.986 251.55 232.989 251.334 232.989 251.117 C 232.989 250.9 232.986 250.685 232.979 250.471 C 232.973 250.257 232.963 250.044 232.951 249.832 C 232.938 249.62 232.922 249.409 232.903 249.2 C 232.884 248.99 232.861 248.782 232.836 248.575 C 232.81 248.368 232.782 248.162 232.75 247.958 C 232.718 247.753 232.682 247.55 232.644 247.348 C 232.605 247.146 232.564 246.945 232.519 246.746 C 232.474 246.546 232.426 246.348 232.375 246.15 C 232.323 245.954 232.269 245.758 232.211 245.564 C 232.154 245.369 232.093 245.176 232.029 244.983 C 231.964 244.791 231.897 244.6 231.826 244.411 C 231.756 244.221 231.682 244.033 231.606 243.845 C 231.529 243.658 231.449 243.471 231.365 243.286 C 231.282 243.101 231.195 242.918 231.106 242.736 C 231.016 242.553 230.923 242.372 230.827 242.192 C 230.731 242.012 230.631 241.833 230.529 241.656 C 230.426 241.478 230.322 241.303 230.215 241.13 C 230.108 240.957 229.998 240.786 229.887 240.617 C 229.775 240.448 229.662 240.282 229.546 240.118 C 229.43 239.954 229.312 239.792 229.192 239.632 C 229.071 239.472 228.949 239.314 228.824 239.159 C 228.699 239.003 228.572 238.85 228.443 238.699 C 228.314 238.548 228.182 238.399 228.049 238.253 C 227.915 238.106 227.779 237.962 227.641 237.82 C 227.503 237.678 227.363 237.538 227.22 237.401 C 227.078 237.263 226.933 237.128 226.786 236.995 C 226.639 236.862 226.49 236.731 226.339 236.603 C 226.188 236.474 226.034 236.347 225.879 236.223 C 225.723 236.099 225.565 235.977 225.405 235.857 C 225.245 235.737 225.082 235.619 224.918 235.504 C 224.753 235.389 224.586 235.276 224.417 235.165 C 224.248 235.054 224.076 234.945 223.903 234.839 C 223.729 234.732 223.555 234.629 223.379 234.529 C 223.203 234.429 223.026 234.333 222.848 234.24 C 222.67 234.146 222.49 234.056 222.31 233.97 C 222.129 233.883 221.947 233.8 221.764 233.72 C 221.58 233.64 221.396 233.563 221.21 233.49 C 221.025 233.416 220.838 233.346 220.65 233.28 C 220.461 233.213 220.272 233.15 220.081 233.09 C 219.891 233.03 219.699 232.973 219.506 232.92 C 219.313 232.867 219.119 232.817 218.923 232.77 C 218.728 232.723 218.531 232.68 218.334 232.64 C 218.136 232.6 217.937 232.564 217.737 232.531 C 217.536 232.497 217.335 232.467 217.132 232.441 C 216.929 232.414 216.725 232.391 216.52 232.371 C 216.314 232.351 216.108 232.334 215.9 232.321 C 215.692 232.307 215.483 232.297 215.273 232.291 C 215.063 232.284 214.851 232.281 214.639 232.281 C 214.426 232.281 214.215 232.284 214.005 232.291 C 213.794 232.297 213.585 232.307 213.378 232.321 C 213.17 232.334 212.963 232.351 212.758 232.371 C 212.552 232.391 212.348 232.414 212.145 232.441 C 211.942 232.467 211.74 232.497 211.54 232.531 C 211.339 232.564 211.14 232.6 210.942 232.64 C 210.744 232.68 210.547 232.723 210.351 232.77 C 210.155 232.817 209.961 232.867 209.768 232.92 C 209.574 232.973 209.382 233.03 209.192 233.09 C 209.001 233.149 208.811 233.212 208.623 233.279 C 208.434 233.346 208.247 233.416 208.061 233.489 C 207.875 233.562 207.69 233.639 207.507 233.719 C 207.323 233.799 207.141 233.882 206.96 233.969 C 206.778 234.055 206.598 234.145 206.42 234.238 C 206.241 234.331 206.063 234.427 205.887 234.527 C 205.71 234.627 205.535 234.73 205.362 234.837 C 205.188 234.944 205.016 235.053 204.847 235.164 C 204.677 235.275 204.51 235.388 204.345 235.504 C 204.18 235.619 204.017 235.737 203.856 235.857 C 203.695 235.977 203.537 236.099 203.381 236.223 C 203.224 236.347 203.07 236.474 202.919 236.603 C 202.767 236.731 202.617 236.862 202.47 236.995 C 202.323 237.128 202.178 237.263 202.035 237.401 C 201.892 237.538 201.751 237.678 201.613 237.82 C 201.474 237.962 201.338 238.106 201.205 238.253 C 201.071 238.399 200.939 238.548 200.81 238.699 C 200.68 238.85 200.553 239.003 200.428 239.159 C 200.302 239.314 200.179 239.471 200.059 239.631 C 199.938 239.791 199.82 239.953 199.704 240.117 C 199.588 240.281 199.474 240.447 199.362 240.616 C 199.25 240.784 199.141 240.955 199.034 241.128 C 198.926 241.301 198.821 241.476 198.718 241.654 C 198.615 241.831 198.515 242.01 198.419 242.19 C 198.323 242.37 198.23 242.551 198.14 242.733 C 198.05 242.915 197.963 243.099 197.879 243.284 C 197.795 243.469 197.715 243.655 197.638 243.842 C 197.561 244.029 197.487 244.218 197.417 244.408 C 197.346 244.597 197.278 244.788 197.214 244.98 C 197.149 245.172 197.088 245.366 197.03 245.561 C 196.972 245.755 196.917 245.951 196.866 246.148 C 196.814 246.345 196.766 246.544 196.722 246.744 C 196.677 246.943 196.635 247.144 196.597 247.346 C 196.558 247.548 196.523 247.751 196.491 247.956 C 196.458 248.16 196.429 248.365 196.404 248.572 C 196.378 248.779 196.356 248.987 196.337 249.196 C 196.317 249.405 196.301 249.615 196.289 249.827 C 196.276 250.039 196.266 250.252 196.26 250.466 C 196.253 250.68 196.25 250.895 196.25 251.112 C 196.25 251.329 196.253 251.545 196.26 251.759 C 196.266 251.974 196.275 252.187 196.288 252.399 C 196.301 252.61 196.317 252.821 196.336 253.03 C 196.355 253.24 196.377 253.448 196.403 253.655 C 196.428 253.862 196.457 254.068 196.489 254.272 C 196.521 254.477 196.556 254.68 196.595 254.882 C 196.633 255.084 196.675 255.285 196.72 255.484 C 196.764 255.684 196.812 255.882 196.864 256.079 C 196.915 256.276 196.969 256.472 197.027 256.667 C 197.085 256.862 197.146 257.055 197.21 257.247 C 197.274 257.439 197.342 257.63 197.413 257.82 C 197.483 258.009 197.557 258.198 197.634 258.385 C 197.711 258.572 197.791 258.758 197.875 258.943 C 197.958 259.128 198.045 259.311 198.135 259.494 C 198.224 259.676 198.317 259.858 198.414 260.038 C 198.51 260.217 198.609 260.396 198.712 260.573 C 198.814 260.751 198.918 260.926 199.025 261.1 C 199.132 261.273 199.241 261.444 199.352 261.613 C 199.463 261.781 199.577 261.948 199.693 262.112 C 199.808 262.276 199.926 262.438 200.047 262.598 C 200.167 262.758 200.29 262.916 200.415 263.071 C 200.54 263.227 200.667 263.38 200.796 263.531 C 200.925 263.681 201.057 263.83 201.191 263.976 C 201.324 264.123 201.46 264.267 201.598 264.409 C 201.736 264.551 201.876 264.691 202.019 264.828 C 202.161 264.966 202.306 265.101 202.453 265.235 C 202.6 265.368 202.749 265.499 202.9 265.627 C 203.051 265.756 203.205 265.882 203.361 266.006 C 203.516 266.13 203.674 266.252 203.834 266.372 C 203.994 266.492 204.156 266.609 204.321 266.725 C 204.486 266.84 204.653 266.953 204.822 267.064 C 204.991 267.175 205.162 267.283 205.336 267.39 C 205.509 267.497 205.683 267.6 205.859 267.7 C 206.035 267.8 206.212 267.897 206.39 267.99 C 206.568 268.083 206.748 268.173 206.929 268.26 C 207.109 268.347 207.291 268.43 207.475 268.51 C 207.658 268.59 207.842 268.667 208.028 268.74 C 208.214 268.813 208.401 268.883 208.589 268.95 C 208.777 269.016 208.966 269.079 209.157 269.139 C 209.347 269.199 209.539 269.255 209.732 269.309 C 209.925 269.362 210.119 269.412 210.315 269.459 C 210.51 269.506 210.707 269.549 210.905 269.589 C 211.103 269.629 211.302 269.665 211.503 269.699 C 211.703 269.732 211.905 269.761 212.108 269.788 C 212.311 269.815 212.515 269.838 212.721 269.858 C 212.926 269.878 213.132 269.895 213.34 269.908 C 213.548 269.921 213.757 269.931 213.967 269.938 C 214.177 269.945 214.389 269.948 214.602 269.948 Z M 314.685 248.661 C 314.684 248.471 314.681 248.282 314.675 248.094 C 314.669 247.881 314.659 247.668 314.646 247.457 C 314.634 247.246 314.618 247.037 314.598 246.829 C 314.579 246.621 314.557 246.413 314.531 246.207 C 314.506 246.001 314.477 245.797 314.444 245.593 C 314.412 245.39 314.377 245.187 314.338 244.986 C 314.3 244.785 314.258 244.584 314.213 244.387 C 314.169 244.187 314.121 243.989 314.069 243.793 C 314.018 243.597 313.963 243.401 313.905 243.209 C 313.847 243.014 313.786 242.82 313.721 242.629 C 313.657 242.439 313.589 242.248 313.518 242.059 C 313.448 241.87 313.374 241.682 313.297 241.496 C 313.22 241.309 313.14 241.125 313.056 240.94 C 312.972 240.756 312.885 240.573 312.795 240.391 C 312.705 240.21 312.612 240.03 312.516 239.851 C 312.42 239.671 312.32 239.493 312.217 239.316 C 312.114 239.139 312.009 238.965 311.901 238.793 C 311.794 238.621 311.685 238.45 311.573 238.283 C 311.461 238.114 311.347 237.949 311.231 237.786 C 311.115 237.622 310.997 237.461 310.876 237.302 C 310.756 237.142 310.633 236.986 310.507 236.831 C 310.382 236.676 310.255 236.524 310.125 236.373 C 309.996 236.223 309.864 236.074 309.73 235.93 C 309.597 235.782 309.461 235.64 309.322 235.498 C 309.184 235.357 309.043 235.217 308.9 235.08 C 308.757 234.943 308.612 234.809 308.465 234.676 C 308.318 234.544 308.168 234.413 308.016 234.286 C 307.865 234.158 307.711 234.03 307.554 233.908 C 307.398 233.784 307.24 233.662 307.079 233.543 C 306.918 233.423 306.755 233.306 306.59 233.191 C 306.425 233.076 306.258 232.963 306.088 232.853 C 305.919 232.742 305.747 232.634 305.573 232.526 C 305.4 232.42 305.225 232.317 305.048 232.218 C 304.872 232.118 304.694 232.023 304.515 231.93 C 304.337 231.837 304.157 231.748 303.975 231.662 C 303.794 231.575 303.612 231.493 303.428 231.414 C 303.245 231.334 303.06 231.256 302.874 231.185 C 302.688 231.112 302.501 231.042 302.312 230.974 C 302.124 230.908 301.934 230.845 301.743 230.786 C 301.553 230.727 301.361 230.67 301.167 230.617 C 300.974 230.564 300.78 230.514 300.584 230.468 C 300.388 230.421 300.191 230.378 299.993 230.338 C 299.795 230.299 299.596 230.263 299.395 230.23 C 299.195 230.196 298.993 230.166 298.79 230.14 C 298.587 230.113 298.383 230.091 298.177 230.071 C 297.972 230.051 297.765 230.033 297.557 230.021 C 297.35 230.007 297.141 229.997 296.93 229.991 C 296.72 229.983 296.509 229.981 296.296 229.981 C 296.084 229.981 295.872 229.983 295.662 229.991 C 295.452 229.997 295.243 230.007 295.035 230.021 C 294.827 230.033 294.621 230.051 294.415 230.071 C 294.21 230.091 294.006 230.113 293.803 230.14 C 293.6 230.166 293.399 230.196 293.198 230.23 C 292.998 230.263 292.799 230.299 292.601 230.338 C 292.404 230.378 292.207 230.421 292.012 230.468 C 291.816 230.514 291.622 230.564 291.429 230.617 C 291.236 230.67 291.044 230.727 290.854 230.786 C 290.663 230.846 290.474 230.909 290.285 230.976 C 290.097 231.042 289.91 231.112 289.725 231.185 C 289.539 231.258 289.355 231.335 289.171 231.415 C 288.988 231.494 288.806 231.576 288.625 231.663 C 288.445 231.749 288.265 231.838 288.087 231.932 C 287.909 232.025 287.732 232.12 287.556 232.22 C 287.38 232.319 287.206 232.422 287.032 232.528 C 286.859 232.635 286.687 232.743 286.518 232.854 C 286.349 232.964 286.182 233.077 286.017 233.191 C 285.853 233.306 285.69 233.423 285.53 233.543 C 285.37 233.662 285.212 233.784 285.056 233.908 C 284.901 234.03 284.747 234.158 284.596 234.286 C 284.445 234.413 284.296 234.544 284.149 234.676 C 284.002 234.809 283.857 234.943 283.715 235.08 C 283.572 235.217 283.432 235.357 283.294 235.498 C 283.156 235.64 283.02 235.782 282.886 235.93 C 282.753 236.074 282.621 236.223 282.492 236.373 C 282.363 236.524 282.236 236.676 282.111 236.831 C 281.986 236.986 281.864 237.143 281.743 237.302 C 281.623 237.463 281.505 237.623 281.389 237.787 C 281.273 237.95 281.16 238.115 281.048 238.283 C 280.937 238.452 280.827 238.623 280.72 238.794 C 280.613 238.967 280.509 239.142 280.406 239.319 C 280.304 239.494 280.204 239.674 280.108 239.853 C 280.012 240.032 279.919 240.212 279.829 240.395 C 279.74 240.576 279.653 240.758 279.57 240.942 C 279.486 241.127 279.406 241.313 279.329 241.499 C 279.253 241.687 279.179 241.874 279.109 242.063 C 279.038 242.251 278.971 242.441 278.906 242.632 C 278.842 242.825 278.781 243.017 278.724 243.211 C 278.666 243.404 278.612 243.6 278.56 243.795 C 278.509 243.992 278.461 244.19 278.416 244.389 C 278.371 244.587 278.33 244.787 278.291 244.988 C 278.253 245.19 278.217 245.392 278.185 245.595 C 278.153 245.799 278.125 246.004 278.099 246.21 C 278.074 246.416 278.051 246.623 278.032 246.833 C 278.013 247.041 277.997 247.251 277.984 247.462 C 277.972 247.674 277.962 247.885 277.956 248.098 C 277.95 248.285 277.947 248.472 277.946 248.661 L 277.857 248.661 L 277.857 285.376 L 260.487 285.376 L 260.487 214.261 C 260.487 214.261 260.487 214.215 260.578 214.215 C 260.669 214.215 270.325 214.215 270.325 214.215 C 270.325 214.215 271.49 214.215 272.492 214.215 C 273.11 214.215 273.892 214.199 274.209 214.211 C 274.34 214.215 274.431 214.222 274.495 214.235 L 277.857 214.235 L 277.857 218.359 C 278.038 218.222 278.22 218.087 278.404 217.953 C 278.597 217.812 278.793 217.675 278.99 217.539 C 279.188 217.404 279.387 217.27 279.589 217.14 C 279.79 217.008 279.994 216.88 280.2 216.754 C 280.406 216.628 280.613 216.504 280.823 216.382 C 281.033 216.26 281.246 216.142 281.46 216.025 C 281.674 215.908 281.89 215.794 282.109 215.681 C 282.327 215.568 282.548 215.459 282.77 215.351 C 282.993 215.244 283.217 215.138 283.444 215.035 C 283.671 214.932 283.901 214.831 284.132 214.734 C 284.363 214.635 284.596 214.541 284.83 214.449 C 285.064 214.356 285.299 214.267 285.536 214.182 C 285.773 214.095 286.012 214.013 286.252 213.933 C 286.492 213.853 286.734 213.776 286.977 213.703 C 287.22 213.629 287.465 213.558 287.711 213.491 C 287.957 213.422 288.204 213.358 288.453 213.297 C 288.703 213.235 288.953 213.178 289.205 213.123 C 289.458 213.067 289.711 213.014 289.966 212.966 C 290.221 212.916 290.478 212.87 290.736 212.827 C 290.994 212.784 291.254 212.744 291.515 212.708 C 291.777 212.671 292.039 212.637 292.304 212.606 C 292.568 212.575 292.834 212.547 293.101 212.523 C 293.368 212.499 293.637 212.478 293.907 212.459 C 294.177 212.441 294.449 212.425 294.722 212.413 C 294.995 212.4 295.27 212.391 295.546 212.385 C 295.822 212.379 296.1 212.376 296.379 212.376 C 296.779 212.376 297.176 212.382 297.571 212.395 C 297.966 212.408 298.359 212.427 298.749 212.452 C 299.14 212.478 299.529 212.51 299.915 212.549 C 300.301 212.586 300.685 212.632 301.066 212.682 C 301.447 212.733 301.826 212.792 302.203 212.855 C 302.58 212.919 302.955 212.989 303.327 213.065 C 303.7 213.143 304.07 213.224 304.437 213.314 C 304.805 213.404 305.171 213.5 305.534 213.603 C 305.898 213.703 306.259 213.813 306.618 213.928 C 306.977 214.043 307.334 214.163 307.688 214.292 C 308.043 214.419 308.395 214.554 308.745 214.694 C 309.095 214.835 309.443 214.982 309.788 215.135 C 310.134 215.288 310.477 215.448 310.818 215.615 C 311.159 215.779 311.498 215.952 311.834 216.13 C 312.17 216.308 312.504 216.494 312.836 216.685 C 313.168 216.877 313.497 217.075 313.824 217.278 C 314.152 217.483 314.475 217.692 314.794 217.905 C 315.113 218.119 315.428 218.335 315.739 218.558 C 316.05 218.779 316.357 219.006 316.659 219.237 C 316.962 219.467 317.261 219.701 317.555 219.941 C 317.849 220.18 318.139 220.425 318.425 220.674 C 318.711 220.921 318.993 221.175 319.271 221.432 C 319.549 221.689 319.822 221.95 320.091 222.216 C 320.361 222.481 320.626 222.751 320.887 223.025 C 321.148 223.301 321.405 223.579 321.658 223.864 C 321.911 224.146 322.16 224.434 322.404 224.726 C 322.649 225.017 322.889 225.315 323.125 225.616 C 323.362 225.916 323.594 226.221 323.822 226.53 C 324.05 226.84 324.274 227.154 324.493 227.473 C 324.713 227.79 324.929 228.113 325.14 228.442 C 325.352 228.768 325.559 229.1 325.762 229.435 C 325.966 229.771 326.165 230.112 326.36 230.456 C 326.555 230.801 326.744 231.148 326.927 231.498 C 327.11 231.846 327.287 232.198 327.458 232.552 C 327.629 232.906 327.793 233.261 327.952 233.619 C 328.11 233.977 328.263 234.338 328.409 234.7 C 328.555 235.062 328.695 235.429 328.83 235.796 C 328.964 236.162 329.092 236.531 329.214 236.904 C 329.336 237.276 329.451 237.649 329.561 238.026 C 329.671 238.403 329.775 238.781 329.872 239.161 C 329.969 239.542 330.06 239.925 330.146 240.311 C 330.231 240.696 330.31 241.083 330.383 241.473 C 330.456 241.862 330.523 242.254 330.584 242.649 C 330.644 243.043 330.699 243.44 330.748 243.838 C 330.797 244.236 330.839 244.638 330.876 245.041 C 330.913 245.443 330.944 245.849 330.968 246.257 C 330.992 246.664 331.01 247.074 331.023 247.487 C 331.031 247.781 331.037 248.075 331.039 248.372 L 331.04 248.372 L 331.04 248.453 C 331.04 248.522 331.041 248.592 331.041 248.661 L 331.04 248.661 L 331.04 285.376 L 314.685 285.376 L 314.685 248.661 Z M 367.391 287.624 C 364.194 287.624 361.142 287.209 358.236 286.381 C 355.327 285.554 352.566 284.314 349.946 282.657 C 347.326 281.002 344.972 279.07 342.883 276.863 C 340.795 274.655 338.97 272.175 337.41 269.418 C 335.848 266.663 334.679 263.757 333.898 260.704 C 333.12 257.652 332.729 254.453 332.729 251.106 C 332.729 247.758 333.12 244.555 333.898 241.498 C 334.679 238.439 335.848 235.527 337.41 232.758 C 338.97 229.99 340.793 227.503 342.883 225.298 C 344.972 223.093 347.326 221.17 349.946 219.528 C 352.563 217.889 355.327 216.658 358.236 215.837 C 361.142 215.016 364.194 214.606 367.391 214.606 C 369.624 214.606 371.761 214.803 373.804 215.198 C 375.844 215.593 377.79 216.185 379.638 216.973 C 381.488 217.762 383.2 218.701 384.78 219.79 C 386.359 220.877 387.803 222.115 389.112 223.501 L 389.112 216.453 L 406.442 216.453 L 406.442 285.776 L 389.112 285.776 L 389.112 278.728 C 387.803 280.115 386.359 281.352 384.78 282.439 C 383.2 283.529 381.488 284.467 379.638 285.257 C 377.79 286.046 375.844 286.636 373.804 287.031 C 371.763 287.426 369.624 287.624 367.391 287.624 Z M 367.437 269.948 C 369.138 269.948 370.76 269.735 372.306 269.309 C 373.852 268.883 375.323 268.244 376.714 267.393 C 378.104 266.541 379.353 265.545 380.46 264.409 C 381.567 263.273 382.532 261.995 383.355 260.576 C 384.178 259.156 384.795 257.659 385.207 256.081 C 385.618 254.506 385.824 252.852 385.824 251.117 C 385.824 249.384 385.62 247.727 385.21 246.15 C 384.799 244.575 384.185 243.075 383.364 241.656 C 382.543 240.236 381.581 238.956 380.476 237.82 C 379.371 236.684 378.127 235.691 376.738 234.839 C 375.352 233.987 373.885 233.346 372.341 232.92 C 370.797 232.494 369.176 232.281 367.474 232.281 C 365.773 232.281 364.149 232.494 362.603 232.92 C 361.057 233.346 359.588 233.985 358.197 234.837 C 356.806 235.691 355.555 236.684 354.448 237.82 C 353.341 238.956 352.376 240.234 351.553 241.654 C 350.73 243.073 350.114 244.571 349.701 246.148 C 349.291 247.725 349.085 249.38 349.085 251.112 C 349.085 252.847 349.289 254.502 349.699 256.079 C 350.109 257.656 350.726 259.154 351.547 260.573 C 352.365 261.995 353.328 263.273 354.433 264.409 C 355.538 265.545 356.782 266.539 358.171 267.39 C 359.557 268.244 361.023 268.883 362.567 269.309 C 364.111 269.735 365.735 269.948 367.437 269.948 Z" style="stroke: rgba(0, 0, 0, 0); stroke-width: 1;" id="object-0">
    <title>Logo</title>
  </path>
  <path d="M 450 250 C 450 360.456 360.456 450 250 450 C 139.544 450 50 360.456 50 250 C 50 139.544 139.544 50 250 50 C 360.456 50 450 139.544 450 250 Z M 215.389 287.615 C 215.666 287.609 215.94 287.6 216.214 287.587 C 216.487 287.575 216.759 287.559 217.029 287.541 C 217.299 287.522 217.568 287.501 217.835 287.476 C 218.102 287.452 218.368 287.424 218.632 287.393 C 218.896 287.362 219.159 287.328 219.42 287.29 C 219.681 287.253 219.941 287.213 220.199 287.17 C 220.457 287.127 220.714 287.081 220.969 287.031 C 221.224 286.982 221.477 286.929 221.73 286.874 C 221.982 286.818 222.232 286.76 222.482 286.698 C 222.731 286.637 222.978 286.572 223.224 286.504 C 223.47 286.437 223.715 286.366 223.958 286.292 C 224.201 286.218 224.443 286.141 224.683 286.061 C 224.923 285.981 225.162 285.898 225.399 285.811 C 225.636 285.725 225.871 285.636 226.105 285.543 C 226.339 285.451 226.572 285.355 226.803 285.257 C 227.034 285.158 227.264 285.057 227.491 284.954 C 227.718 284.851 227.942 284.745 228.165 284.637 C 228.387 284.529 228.608 284.418 228.826 284.306 C 229.045 284.193 229.261 284.078 229.475 283.96 C 229.689 283.843 229.902 283.724 230.112 283.602 C 230.322 283.48 230.529 283.355 230.735 283.228 C 230.941 283.102 231.145 282.973 231.346 282.841 C 231.548 282.71 231.747 282.576 231.945 282.439 C 232.142 282.303 232.338 282.165 232.531 282.024 C 232.724 281.884 232.915 281.741 233.104 281.595 C 233.293 281.45 233.48 281.303 233.664 281.153 C 233.849 281.003 234.031 280.851 234.212 280.696 C 234.392 280.542 234.571 280.385 234.747 280.225 C 234.924 280.066 235.098 279.904 235.27 279.74 C 235.442 279.576 235.612 279.41 235.78 279.241 C 235.948 279.073 236.113 278.902 236.277 278.728 L 236.277 285.776 C 236.277 285.776 253.315 285.776 253.461 285.776 C 253.607 285.776 253.607 285.781 253.607 285.624 C 253.607 285.467 253.607 225.119 253.607 225.119 C 253.607 225.119 253.607 217.186 253.607 216.824 C 253.607 216.462 253.603 216.453 253.283 216.453 C 252.963 216.453 240.61 216.453 240.61 216.453 C 240.61 216.453 239.445 216.453 238.443 216.453 C 237.825 216.453 237.043 216.436 236.726 216.448 C 236.286 216.464 236.291 216.497 236.291 216.787 C 236.291 217.041 236.277 217.474 236.277 218.215 C 236.277 218.509 236.277 223.501 236.277 223.501 C 236.113 223.328 235.948 223.157 235.78 222.988 C 235.612 222.82 235.442 222.653 235.27 222.489 C 235.098 222.325 234.924 222.164 234.747 222.004 C 234.571 221.845 234.392 221.688 234.212 221.533 C 234.031 221.379 233.849 221.226 233.664 221.076 C 233.48 220.926 233.293 220.779 233.104 220.633 C 232.915 220.488 232.724 220.345 232.531 220.205 C 232.338 220.064 232.142 219.926 231.945 219.79 C 231.747 219.654 231.548 219.52 231.346 219.389 C 231.145 219.257 230.941 219.128 230.735 219.001 C 230.529 218.875 230.322 218.75 230.112 218.628 C 229.902 218.506 229.689 218.387 229.475 218.269 C 229.261 218.152 229.045 218.037 228.826 217.924 C 228.608 217.811 228.387 217.701 228.165 217.593 C 227.942 217.485 227.718 217.379 227.491 217.276 C 227.264 217.172 227.034 217.071 226.803 216.973 C 226.572 216.874 226.339 216.779 226.105 216.687 C 225.871 216.594 225.636 216.505 225.399 216.419 C 225.162 216.332 224.923 216.249 224.683 216.169 C 224.443 216.089 224.201 216.012 223.958 215.938 C 223.715 215.864 223.47 215.793 223.224 215.725 C 222.978 215.657 222.731 215.592 222.482 215.531 C 222.232 215.469 221.982 215.411 221.73 215.355 C 221.477 215.3 221.224 215.247 220.969 215.198 C 220.714 215.148 220.457 215.102 220.199 215.059 C 219.941 215.016 219.681 214.976 219.42 214.939 C 219.158 214.902 218.896 214.868 218.631 214.837 C 218.367 214.806 218.101 214.778 217.834 214.754 C 217.567 214.729 217.298 214.708 217.028 214.689 C 216.758 214.671 216.486 214.655 216.213 214.643 C 215.94 214.63 215.665 214.621 215.389 214.615 C 215.113 214.609 214.835 214.606 214.556 214.606 C 214.156 214.606 213.759 214.612 213.364 214.625 C 212.969 214.638 212.576 214.657 212.186 214.683 C 211.795 214.708 211.406 214.74 211.02 214.779 C 210.634 214.817 210.25 214.862 209.869 214.914 C 209.488 214.965 209.109 215.023 208.732 215.087 C 208.355 215.151 207.98 215.221 207.608 215.298 C 207.235 215.375 206.865 215.458 206.498 215.548 C 206.13 215.638 205.764 215.734 205.401 215.837 C 205.037 215.939 204.676 216.048 204.317 216.164 C 203.958 216.279 203.601 216.401 203.247 216.529 C 202.892 216.657 202.54 216.792 202.19 216.933 C 201.84 217.074 201.492 217.222 201.147 217.376 C 200.801 217.53 200.458 217.69 200.117 217.857 C 199.776 218.023 199.437 218.196 199.101 218.375 C 198.765 218.554 198.431 218.74 198.099 218.932 C 197.767 219.124 197.438 219.323 197.111 219.528 C 196.783 219.733 196.46 219.943 196.141 220.157 C 195.822 220.371 195.507 220.589 195.196 220.812 C 194.885 221.035 194.578 221.262 194.276 221.494 C 193.973 221.725 193.674 221.961 193.38 222.202 C 193.086 222.442 192.796 222.687 192.51 222.937 C 192.224 223.186 191.942 223.44 191.664 223.698 C 191.386 223.956 191.113 224.218 190.844 224.485 C 190.574 224.751 190.309 225.022 190.048 225.298 C 189.787 225.574 189.53 225.854 189.277 226.139 C 189.024 226.423 188.775 226.712 188.531 227.005 C 188.286 227.298 188.046 227.596 187.81 227.898 C 187.573 228.2 187.341 228.506 187.113 228.817 C 186.885 229.128 186.661 229.443 186.442 229.763 C 186.222 230.082 186.006 230.406 185.795 230.735 C 185.583 231.063 185.376 231.396 185.173 231.733 C 184.969 232.07 184.77 232.412 184.575 232.758 C 184.38 233.104 184.191 233.453 184.008 233.804 C 183.825 234.154 183.648 234.507 183.477 234.862 C 183.306 235.217 183.142 235.574 182.983 235.934 C 182.825 236.293 182.672 236.655 182.526 237.019 C 182.38 237.383 182.24 237.75 182.105 238.119 C 181.971 238.487 181.843 238.858 181.721 239.232 C 181.599 239.605 181.484 239.98 181.374 240.358 C 181.264 240.736 181.16 241.116 181.063 241.498 C 180.966 241.88 180.875 242.265 180.789 242.652 C 180.704 243.038 180.625 243.427 180.552 243.819 C 180.479 244.21 180.412 244.603 180.351 244.999 C 180.291 245.395 180.236 245.793 180.187 246.193 C 180.138 246.593 180.096 246.996 180.059 247.401 C 180.022 247.805 179.991 248.212 179.967 248.622 C 179.943 249.031 179.925 249.443 179.912 249.857 C 179.9 250.271 179.894 250.687 179.894 251.106 C 179.894 251.524 179.9 251.941 179.912 252.355 C 179.925 252.768 179.943 253.18 179.967 253.589 C 179.991 253.998 180.022 254.405 180.059 254.809 C 180.096 255.214 180.138 255.616 180.187 256.016 C 180.236 256.416 180.291 256.813 180.351 257.209 C 180.412 257.604 180.479 257.996 180.552 258.387 C 180.625 258.778 180.704 259.167 180.789 259.553 C 180.875 259.939 180.966 260.322 181.063 260.704 C 181.16 261.086 181.264 261.465 181.374 261.842 C 181.484 262.219 181.599 262.594 181.721 262.966 C 181.843 263.338 181.971 263.709 182.105 264.077 C 182.24 264.444 182.38 264.81 182.526 265.173 C 182.672 265.536 182.825 265.897 182.983 266.255 C 183.142 266.614 183.306 266.97 183.477 267.324 C 183.648 267.677 183.825 268.029 184.008 268.378 C 184.191 268.727 184.38 269.074 184.575 269.418 C 184.77 269.763 184.969 270.103 185.173 270.439 C 185.376 270.775 185.583 271.106 185.795 271.434 C 186.006 271.761 186.222 272.084 186.442 272.403 C 186.661 272.722 186.885 273.036 187.113 273.346 C 187.341 273.656 187.574 273.962 187.81 274.264 C 188.046 274.566 188.286 274.863 188.531 275.156 C 188.776 275.449 189.025 275.738 189.277 276.022 C 189.53 276.307 189.787 276.587 190.048 276.863 C 190.309 277.139 190.575 277.411 190.844 277.678 C 191.113 277.945 191.387 278.208 191.665 278.467 C 191.942 278.725 192.224 278.98 192.51 279.23 C 192.796 279.48 193.086 279.725 193.38 279.967 C 193.674 280.208 193.973 280.446 194.276 280.679 C 194.578 280.911 194.885 281.14 195.196 281.364 C 195.507 281.588 195.822 281.808 196.141 282.024 C 196.46 282.239 196.783 282.45 197.111 282.657 C 197.438 282.864 197.768 283.065 198.1 283.259 C 198.432 283.453 198.766 283.641 199.103 283.822 C 199.439 284.003 199.777 284.177 200.118 284.345 C 200.459 284.513 200.802 284.675 201.148 284.83 C 201.493 284.986 201.841 285.134 202.191 285.277 C 202.54 285.419 202.892 285.555 203.247 285.684 C 203.601 285.813 203.958 285.936 204.317 286.052 C 204.676 286.168 205.037 286.278 205.401 286.381 C 205.764 286.485 206.13 286.582 206.498 286.672 C 206.865 286.763 207.235 286.847 207.608 286.925 C 207.98 287.003 208.355 287.074 208.732 287.139 C 209.109 287.203 209.488 287.262 209.869 287.313 C 210.251 287.365 210.634 287.41 211.02 287.449 C 211.406 287.488 211.795 287.52 212.186 287.546 C 212.577 287.572 212.969 287.592 213.364 287.605 C 213.759 287.618 214.157 287.624 214.556 287.624 C 214.835 287.624 215.113 287.621 215.389 287.615 Z M 213.967 269.938 C 213.757 269.931 213.548 269.921 213.34 269.908 C 213.132 269.895 212.926 269.878 212.721 269.858 C 212.515 269.838 212.311 269.815 212.108 269.788 C 211.905 269.761 211.703 269.732 211.503 269.699 C 211.302 269.665 211.103 269.629 210.905 269.589 C 210.707 269.549 210.51 269.506 210.315 269.459 C 210.119 269.412 209.925 269.362 209.732 269.309 C 209.539 269.255 209.347 269.199 209.157 269.139 C 208.966 269.079 208.777 269.016 208.589 268.95 C 208.401 268.883 208.214 268.813 208.028 268.74 C 207.842 268.667 207.658 268.59 207.475 268.51 C 207.291 268.43 207.109 268.347 206.929 268.26 C 206.748 268.173 206.568 268.083 206.39 267.99 C 206.212 267.897 206.035 267.8 205.859 267.7 C 205.683 267.6 205.509 267.497 205.336 267.39 C 205.162 267.283 204.991 267.175 204.822 267.064 C 204.653 266.953 204.486 266.84 204.321 266.725 C 204.156 266.609 203.994 266.492 203.834 266.372 C 203.674 266.252 203.516 266.13 203.361 266.006 C 203.205 265.882 203.051 265.756 202.9 265.627 C 202.749 265.499 202.6 265.368 202.453 265.235 C 202.306 265.101 202.161 264.966 202.019 264.828 C 201.876 264.691 201.736 264.551 201.598 264.409 C 201.46 264.267 201.324 264.123 201.191 263.976 C 201.057 263.83 200.925 263.681 200.796 263.531 C 200.667 263.38 200.54 263.227 200.415 263.071 C 200.29 262.916 200.167 262.758 200.047 262.598 C 199.926 262.438 199.808 262.276 199.693 262.112 C 199.577 261.948 199.463 261.781 199.352 261.613 C 199.241 261.444 199.132 261.273 199.025 261.1 C 198.918 260.926 198.814 260.751 198.712 260.573 C 198.609 260.396 198.51 260.217 198.414 260.038 C 198.317 259.858 198.224 259.676 198.135 259.494 C 198.045 259.311 197.958 259.128 197.875 258.943 C 197.791 258.758 197.711 258.572 197.634 258.385 C 197.557 258.198 197.483 258.009 197.413 257.82 C 197.342 257.63 197.274 257.439 197.21 257.247 C 197.146 257.055 197.085 256.862 197.027 256.667 C 196.969 256.472 196.915 256.276 196.864 256.079 C 196.812 255.882 196.764 255.684 196.72 255.484 C 196.675 255.285 196.633 255.084 196.595 254.882 C 196.556 254.68 196.521 254.477 196.489 254.272 C 196.457 254.068 196.428 253.862 196.403 253.655 C 196.377 253.448 196.355 253.24 196.336 253.03 C 196.317 252.821 196.301 252.61 196.288 252.399 C 196.275 252.187 196.266 251.974 196.26 251.759 C 196.253 251.545 196.25 251.329 196.25 251.112 C 196.25 250.895 196.253 250.68 196.26 250.466 C 196.266 250.252 196.276 250.039 196.289 249.827 C 196.301 249.615 196.317 249.405 196.337 249.196 C 196.356 248.987 196.378 248.779 196.404 248.572 C 196.429 248.365 196.458 248.16 196.491 247.956 C 196.523 247.751 196.558 247.548 196.597 247.346 C 196.635 247.144 196.677 246.943 196.722 246.744 C 196.766 246.544 196.814 246.345 196.866 246.148 C 196.917 245.951 196.972 245.755 197.03 245.561 C 197.088 245.366 197.149 245.172 197.214 244.98 C 197.278 244.788 197.346 244.597 197.417 244.408 C 197.487 244.218 197.561 244.029 197.638 243.842 C 197.715 243.655 197.795 243.469 197.879 243.284 C 197.963 243.099 198.05 242.915 198.14 242.733 C 198.23 242.551 198.323 242.37 198.419 242.19 C 198.515 242.01 198.615 241.831 198.718 241.654 C 198.821 241.476 198.926 241.301 199.034 241.128 C 199.141 240.955 199.25 240.784 199.362 240.616 C 199.474 240.447 199.588 240.281 199.704 240.117 C 199.82 239.953 199.938 239.791 200.059 239.631 C 200.179 239.471 200.302 239.314 200.428 239.159 C 200.553 239.003 200.68 238.85 200.81 238.699 C 200.939 238.548 201.071 238.399 201.205 238.253 C 201.338 238.106 201.474 237.962 201.613 237.82 C 201.751 237.678 201.892 237.538 202.035 237.401 C 202.178 237.263 202.323 237.128 202.47 236.995 C 202.617 236.862 202.767 236.731 202.919 236.603 C 203.07 236.474 203.224 236.347 203.381 236.223 C 203.537 236.099 203.695 235.977 203.856 235.857 C 204.017 235.737 204.18 235.619 204.345 235.504 C 204.51 235.388 204.677 235.275 204.847 235.164 C 205.016 235.053 205.188 234.944 205.362 234.837 C 205.535 234.73 205.71 234.627 205.887 234.527 C 206.063 234.427 206.241 234.331 206.42 234.238 C 206.598 234.145 206.778 234.055 206.96 233.969 C 207.141 233.882 207.323 233.799 207.507 233.719 C 207.69 233.639 207.875 233.562 208.061 233.489 C 208.247 233.416 208.434 233.346 208.623 233.279 C 208.811 233.212 209.001 233.149 209.192 233.09 C 209.382 233.03 209.574 232.973 209.768 232.92 C 209.961 232.867 210.155 232.817 210.351 232.77 C 210.547 232.723 210.744 232.68 210.942 232.64 C 211.14 232.6 211.339 232.564 211.54 232.531 C 211.74 232.497 211.942 232.467 212.145 232.441 C 212.348 232.414 212.552 232.391 212.758 232.371 C 212.963 232.351 213.17 232.334 213.378 232.321 C 213.585 232.307 213.794 232.297 214.005 232.291 C 214.215 232.284 214.426 232.281 214.639 232.281 C 214.851 232.281 215.063 232.284 215.273 232.291 C 215.483 232.297 215.692 232.307 215.9 232.321 C 216.108 232.334 216.314 232.351 216.52 232.371 C 216.725 232.391 216.929 232.414 217.132 232.441 C 217.335 232.467 217.536 232.497 217.737 232.531 C 217.937 232.564 218.136 232.6 218.334 232.64 C 218.531 232.68 218.728 232.723 218.923 232.77 C 219.119 232.817 219.313 232.867 219.506 232.92 C 219.699 232.973 219.891 233.03 220.081 233.09 C 220.272 233.15 220.461 233.213 220.65 233.28 C 220.838 233.346 221.025 233.416 221.21 233.49 C 221.396 233.563 221.58 233.64 221.764 233.72 C 221.947 233.8 222.129 233.883 222.31 233.97 C 222.49 234.056 222.67 234.146 222.848 234.24 C 223.026 234.333 223.203 234.429 223.379 234.529 C 223.555 234.629 223.729 234.732 223.903 234.839 C 224.076 234.945 224.248 235.054 224.417 235.165 C 224.586 235.276 224.753 235.389 224.918 235.504 C 225.082 235.619 225.245 235.737 225.405 235.857 C 225.565 235.977 225.723 236.099 225.879 236.223 C 226.034 236.347 226.188 236.474 226.339 236.603 C 226.49 236.731 226.639 236.862 226.786 236.995 C 226.933 237.128 227.078 237.263 227.22 237.401 C 227.363 237.538 227.503 237.678 227.641 237.82 C 227.779 237.962 227.915 238.106 228.049 238.253 C 228.182 238.399 228.314 238.548 228.443 238.699 C 228.572 238.85 228.699 239.003 228.824 239.159 C 228.949 239.314 229.071 239.472 229.192 239.632 C 229.312 239.792 229.43 239.954 229.546 240.118 C 229.662 240.282 229.775 240.448 229.887 240.617 C 229.998 240.786 230.108 240.957 230.215 241.13 C 230.322 241.303 230.426 241.478 230.529 241.656 C 230.631 241.833 230.731 242.012 230.827 242.192 C 230.923 242.372 231.016 242.553 231.106 242.736 C 231.195 242.918 231.282 243.101 231.365 243.286 C 231.449 243.471 231.529 243.658 231.606 243.845 C 231.682 244.033 231.756 244.221 231.826 244.411 C 231.897 244.6 231.964 244.791 232.029 244.983 C 232.093 245.176 232.154 245.369 232.211 245.564 C 232.269 245.758 232.323 245.954 232.375 246.15 C 232.426 246.348 232.474 246.546 232.519 246.746 C 232.564 246.945 232.605 247.146 232.644 247.348 C 232.682 247.55 232.718 247.753 232.75 247.958 C 232.782 248.162 232.81 248.368 232.836 248.575 C 232.861 248.782 232.884 248.99 232.903 249.2 C 232.922 249.409 232.938 249.62 232.951 249.832 C 232.963 250.044 232.973 250.257 232.979 250.471 C 232.986 250.685 232.989 250.9 232.989 251.117 C 232.989 251.334 232.986 251.55 232.979 251.764 C 232.973 251.978 232.963 252.191 232.951 252.403 C 232.938 252.615 232.922 252.826 232.902 253.035 C 232.883 253.244 232.86 253.452 232.835 253.659 C 232.809 253.866 232.78 254.071 232.748 254.276 C 232.716 254.48 232.68 254.683 232.642 254.885 C 232.603 255.087 232.562 255.288 232.517 255.487 C 232.472 255.686 232.423 255.884 232.372 256.081 C 232.32 256.278 232.266 256.474 232.208 256.669 C 232.15 256.864 232.089 257.057 232.025 257.25 C 231.96 257.442 231.893 257.633 231.822 257.823 C 231.751 258.012 231.677 258.201 231.6 258.388 C 231.523 258.575 231.443 258.761 231.359 258.946 C 231.276 259.131 231.189 259.314 231.099 259.497 C 231.009 259.679 230.916 259.86 230.819 260.04 C 230.723 260.22 230.623 260.398 230.52 260.576 C 230.417 260.753 230.312 260.929 230.205 261.102 C 230.097 261.275 229.988 261.445 229.876 261.614 C 229.764 261.782 229.65 261.949 229.534 262.113 C 229.418 262.277 229.299 262.439 229.179 262.599 C 229.058 262.759 228.936 262.916 228.811 263.072 C 228.686 263.227 228.558 263.38 228.429 263.531 C 228.299 263.681 228.168 263.83 228.034 263.976 C 227.9 264.123 227.763 264.267 227.625 264.409 C 227.486 264.551 227.346 264.691 227.203 264.828 C 227.06 264.966 226.915 265.101 226.768 265.235 C 226.621 265.368 226.471 265.499 226.32 265.628 C 226.168 265.757 226.014 265.884 225.858 266.008 C 225.702 266.133 225.544 266.255 225.383 266.374 C 225.223 266.494 225.06 266.612 224.895 266.727 C 224.73 266.843 224.563 266.956 224.393 267.067 C 224.224 267.178 224.052 267.287 223.879 267.393 C 223.705 267.5 223.53 267.603 223.354 267.703 C 223.177 267.803 223 267.899 222.821 267.992 C 222.642 268.085 222.462 268.175 222.281 268.261 C 222.099 268.348 221.917 268.431 221.733 268.51 C 221.549 268.59 221.364 268.667 221.178 268.74 C 220.992 268.814 220.804 268.884 220.616 268.95 C 220.427 269.017 220.238 269.08 220.047 269.14 C 219.856 269.2 219.664 269.256 219.471 269.309 C 219.277 269.363 219.083 269.413 218.887 269.459 C 218.692 269.506 218.495 269.549 218.297 269.589 C 218.099 269.629 217.9 269.665 217.699 269.698 C 217.499 269.731 217.298 269.762 217.095 269.788 C 216.892 269.815 216.688 269.839 216.483 269.858 C 216.278 269.879 216.071 269.895 215.863 269.908 C 215.656 269.922 215.447 269.932 215.237 269.938 C 215.026 269.945 214.815 269.948 214.602 269.948 C 214.389 269.948 214.177 269.945 213.967 269.938 Z M 156.412 250.821 L 156.413 250.821 L 161.947 245.751 L 165.577 242.428 L 169.209 239.1 L 180.1 229.129 L 183.731 225.801 L 187.362 222.477 C 187.362 222.477 188.198 221.691 190.994 219.151 C 194.641 215.834 194.447 215.828 190.1 215.828 C 185.753 215.828 131.302 215.828 131.302 215.828 C 131.302 215.828 130.144 215.828 126.184 215.828 C 122.224 215.828 122.042 216.381 121.693 217.286 C 121.346 218.187 115.777 232.628 115.777 232.628 C 115.656 232.942 115.557 233.256 115.478 233.564 C 115.401 233.873 115.345 234.179 115.31 234.475 C 115.276 234.773 115.265 235.067 115.272 235.353 C 115.281 235.639 115.308 235.922 115.357 236.194 C 115.406 236.471 115.473 236.738 115.559 236.997 C 115.646 237.258 115.754 237.511 115.877 237.753 C 116.002 237.996 116.141 238.232 116.302 238.458 C 116.463 238.686 116.642 238.902 116.839 239.11 C 117.032 239.317 117.244 239.515 117.473 239.7 C 117.701 239.888 117.943 240.066 118.201 240.23 C 118.461 240.394 118.737 240.548 119.027 240.688 C 119.319 240.83 119.622 240.959 119.939 241.075 C 120.26 241.189 120.59 241.292 120.938 241.383 C 121.285 241.474 121.645 241.55 122.016 241.609 C 122.387 241.672 122.772 241.717 123.167 241.749 C 123.565 241.78 123.974 241.794 124.393 241.794 C 124.814 241.794 125.234 241.78 125.655 241.749 C 126.073 241.717 126.495 241.672 126.916 241.609 C 127.333 241.55 127.75 241.474 128.166 241.383 C 128.579 241.292 128.995 241.189 129.401 241.075 C 129.811 240.959 130.214 240.83 130.613 240.688 C 131.012 240.548 131.402 240.394 131.789 240.23 C 132.176 240.066 132.557 239.888 132.929 239.7 C 133.302 239.515 133.667 239.317 134.023 239.11 C 134.378 238.902 134.723 238.686 135.057 238.458 C 135.392 238.232 135.718 237.996 136.029 237.753 C 136.343 237.511 136.641 237.258 136.928 236.997 C 137.217 236.738 137.491 236.471 137.749 236.194 C 138.007 235.922 138.254 235.639 138.483 235.353 C 138.713 235.067 138.923 234.773 139.12 234.475 C 139.316 234.179 139.483 233.957 139.658 233.564 C 142.737 226.646 152.113 227.264 149.051 233.55 C 148.618 234.441 146.939 235.951 146.939 235.951 L 143.307 239.278 L 139.679 242.601 L 136.047 245.929 L 130.707 250.819 L 130.705 250.819 L 125.171 255.889 L 121.541 259.212 L 117.908 262.539 L 107.019 272.511 L 103.387 275.839 L 99.756 279.163 C 99.756 279.163 98.921 279.949 96.125 282.489 C 92.476 285.806 92.67 285.813 97.017 285.813 C 101.364 285.813 155.817 285.813 155.817 285.813 C 155.817 285.813 156.974 285.813 160.934 285.813 C 164.895 285.813 164.794 285.989 165.144 285.085 C 165.492 284.184 171.342 269.011 171.342 269.011 C 171.463 268.699 171.562 268.387 171.639 268.075 C 171.717 267.767 171.773 267.462 171.808 267.165 C 171.841 266.867 171.853 266.574 171.845 266.288 C 171.836 266.002 171.81 265.718 171.761 265.444 C 171.712 265.169 171.646 264.903 171.56 264.643 C 171.472 264.383 171.365 264.13 171.24 263.889 C 171.118 263.643 170.976 263.408 170.816 263.182 C 170.655 262.955 170.477 262.737 170.28 262.532 C 170.086 262.322 169.874 262.125 169.646 261.938 C 169.417 261.75 169.175 261.575 168.916 261.409 C 168.656 261.244 168.381 261.091 168.09 260.952 C 167.801 260.81 167.497 260.681 167.178 260.565 C 166.857 260.449 166.526 260.347 166.182 260.256 C 165.834 260.166 165.472 260.091 165.101 260.03 C 164.73 259.97 164.346 259.922 163.951 259.892 C 163.555 259.859 163.144 259.844 162.725 259.844 C 162.303 259.844 161.886 259.859 161.463 259.892 C 161.045 259.922 160.621 259.97 160.203 260.03 C 159.784 260.091 159.368 260.166 158.954 260.256 C 158.538 260.347 158.123 260.449 157.716 260.565 C 157.308 260.681 156.906 260.81 156.506 260.952 C 156.107 261.091 155.716 261.244 155.327 261.409 C 154.941 261.575 154.562 261.75 154.19 261.938 C 153.814 262.125 153.451 262.322 153.095 262.532 C 152.741 262.737 152.396 262.955 152.062 263.182 C 151.725 263.408 151.401 263.643 151.087 263.889 C 150.775 264.13 150.476 264.383 150.191 264.643 C 149.902 264.903 149.627 265.169 149.369 265.444 C 149.11 265.72 148.864 266.002 148.634 266.288 C 148.406 266.574 148.194 266.867 147.997 267.165 C 147.803 267.462 147.706 267.694 147.461 268.075 C 144.311 272.96 135.435 272.673 138.068 268.09 C 138.573 267.209 140.179 265.69 140.179 265.69 L 143.81 262.362 L 147.439 259.038 L 151.071 255.711 Z M 161.607 285.828 C 161.862 285.828 161.395 285.828 161.607 285.828 Z M 314.685 285.376 L 331.04 285.376 L 331.04 248.661 L 331.041 248.661 C 331.041 248.592 331.04 248.522 331.04 248.453 L 331.04 248.372 L 331.039 248.372 C 331.037 248.075 331.031 247.781 331.023 247.487 C 331.01 247.074 330.992 246.664 330.968 246.257 C 330.944 245.849 330.913 245.443 330.876 245.041 C 330.839 244.638 330.797 244.236 330.748 243.838 C 330.699 243.44 330.644 243.043 330.584 242.649 C 330.523 242.254 330.456 241.862 330.383 241.473 C 330.31 241.083 330.231 240.696 330.146 240.311 C 330.06 239.925 329.969 239.542 329.872 239.161 C 329.775 238.781 329.671 238.403 329.561 238.026 C 329.451 237.649 329.336 237.276 329.214 236.904 C 329.092 236.531 328.964 236.162 328.83 235.796 C 328.695 235.429 328.555 235.062 328.409 234.7 C 328.263 234.338 328.11 233.977 327.952 233.619 C 327.793 233.261 327.629 232.906 327.458 232.552 C 327.287 232.198 327.11 231.846 326.927 231.498 C 326.744 231.148 326.555 230.801 326.36 230.456 C 326.165 230.112 325.966 229.771 325.762 229.435 C 325.559 229.1 325.352 228.768 325.14 228.442 C 324.929 228.113 324.713 227.79 324.493 227.473 C 324.274 227.154 324.05 226.84 323.822 226.53 C 323.594 226.221 323.362 225.916 323.125 225.616 C 322.889 225.315 322.649 225.017 322.404 224.726 C 322.16 224.434 321.911 224.146 321.658 223.864 C 321.405 223.579 321.148 223.301 320.887 223.025 C 320.626 222.751 320.361 222.481 320.091 222.216 C 319.822 221.95 319.549 221.689 319.271 221.432 C 318.993 221.175 318.711 220.921 318.425 220.674 C 318.139 220.425 317.849 220.18 317.555 219.941 C 317.261 219.701 316.962 219.467 316.659 219.237 C 316.357 219.006 316.05 218.779 315.739 218.558 C 315.428 218.335 315.113 218.119 314.794 217.905 C 314.475 217.692 314.152 217.483 313.824 217.278 C 313.497 217.075 313.168 216.877 312.836 216.685 C 312.504 216.494 312.17 216.308 311.834 216.13 C 311.498 215.952 311.159 215.779 310.818 215.615 C 310.477 215.448 310.134 215.288 309.788 215.135 C 309.443 214.982 309.095 214.835 308.745 214.694 C 308.395 214.554 308.043 214.419 307.688 214.292 C 307.334 214.163 306.977 214.043 306.618 213.928 C 306.259 213.813 305.898 213.703 305.534 213.603 C 305.171 213.5 304.805 213.404 304.437 213.314 C 304.07 213.224 303.7 213.143 303.327 213.065 C 302.955 212.989 302.58 212.919 302.203 212.855 C 301.826 212.792 301.447 212.733 301.066 212.682 C 300.685 212.632 300.301 212.586 299.915 212.549 C 299.529 212.51 299.14 212.478 298.749 212.452 C 298.359 212.427 297.966 212.408 297.571 212.395 C 297.176 212.382 296.779 212.376 296.379 212.376 C 296.1 212.376 295.822 212.379 295.546 212.385 C 295.27 212.391 294.995 212.4 294.722 212.413 C 294.449 212.425 294.177 212.441 293.907 212.459 C 293.637 212.478 293.368 212.499 293.101 212.523 C 292.834 212.547 292.568 212.575 292.304 212.606 C 292.039 212.637 291.777 212.671 291.515 212.708 C 291.254 212.744 290.994 212.784 290.736 212.827 C 290.478 212.87 290.221 212.916 289.966 212.966 C 289.711 213.014 289.458 213.067 289.205 213.123 C 288.953 213.178 288.703 213.235 288.453 213.297 C 288.204 213.358 287.957 213.422 287.711 213.491 C 287.465 213.558 287.22 213.629 286.977 213.703 C 286.734 213.776 286.492 213.853 286.252 213.933 C 286.012 214.013 285.773 214.095 285.536 214.182 C 285.299 214.267 285.064 214.356 284.83 214.449 C 284.596 214.541 284.363 214.635 284.132 214.734 C 283.901 214.831 283.671 214.932 283.444 215.035 C 283.217 215.138 282.993 215.244 282.77 215.351 C 282.548 215.459 282.327 215.568 282.109 215.681 C 281.89 215.794 281.674 215.908 281.46 216.025 C 281.246 216.142 281.033 216.26 280.823 216.382 C 280.613 216.504 280.406 216.628 280.2 216.754 C 279.994 216.88 279.79 217.008 279.589 217.14 C 279.387 217.27 279.188 217.404 278.99 217.539 C 278.793 217.675 278.597 217.812 278.404 217.953 C 278.22 218.087 278.038 218.222 277.857 218.359 L 277.857 214.235 L 274.495 214.235 C 274.431 214.222 274.34 214.215 274.209 214.211 C 273.892 214.199 273.11 214.215 272.492 214.215 C 271.49 214.215 270.325 214.215 270.325 214.215 C 270.325 214.215 260.669 214.215 260.578 214.215 C 260.487 214.215 260.487 214.261 260.487 214.261 L 260.487 285.376 L 277.857 285.376 L 277.857 248.661 L 277.946 248.661 C 277.947 248.472 277.95 248.285 277.956 248.098 C 277.962 247.885 277.972 247.674 277.984 247.462 C 277.997 247.251 278.013 247.041 278.032 246.833 C 278.051 246.623 278.074 246.416 278.099 246.21 C 278.125 246.004 278.153 245.799 278.185 245.595 C 278.217 245.392 278.253 245.19 278.291 244.988 C 278.33 244.787 278.371 244.587 278.416 244.389 C 278.461 244.19 278.509 243.992 278.56 243.795 C 278.612 243.6 278.666 243.404 278.724 243.211 C 278.781 243.017 278.842 242.825 278.906 242.632 C 278.971 242.441 279.038 242.251 279.109 242.063 C 279.179 241.874 279.253 241.687 279.329 241.499 C 279.406 241.313 279.486 241.127 279.57 240.942 C 279.653 240.758 279.74 240.576 279.829 240.395 C 279.919 240.212 280.012 240.032 280.108 239.853 C 280.204 239.674 280.304 239.494 280.406 239.319 C 280.509 239.142 280.613 238.967 280.72 238.794 C 280.827 238.623 280.937 238.452 281.048 238.283 C 281.16 238.115 281.273 237.95 281.389 237.787 C 281.505 237.623 281.623 237.463 281.743 237.302 C 281.864 237.143 281.986 236.986 282.111 236.831 C 282.236 236.676 282.363 236.524 282.492 236.373 C 282.621 236.223 282.753 236.074 282.886 235.93 C 283.02 235.782 283.156 235.64 283.294 235.498 C 283.432 235.357 283.572 235.217 283.715 235.08 C 283.857 234.943 284.002 234.809 284.149 234.676 C 284.296 234.544 284.445 234.413 284.596 234.286 C 284.747 234.158 284.901 234.03 285.056 233.908 C 285.212 233.784 285.37 233.662 285.53 233.543 C 285.69 233.423 285.853 233.306 286.017 233.191 C 286.182 233.077 286.349 232.964 286.518 232.854 C 286.687 232.743 286.859 232.635 287.032 232.528 C 287.206 232.422 287.38 232.319 287.556 232.22 C 287.732 232.12 287.909 232.025 288.087 231.932 C 288.265 231.838 288.445 231.749 288.625 231.663 C 288.806 231.576 288.988 231.494 289.171 231.415 C 289.355 231.335 289.539 231.258 289.725 231.185 C 289.91 231.112 290.097 231.042 290.285 230.976 C 290.474 230.909 290.663 230.846 290.854 230.786 C 291.044 230.727 291.236 230.67 291.429 230.617 C 291.622 230.564 291.816 230.514 292.012 230.468 C 292.207 230.421 292.404 230.378 292.601 230.338 C 292.799 230.299 292.998 230.263 293.198 230.23 C 293.399 230.196 293.6 230.166 293.803 230.14 C 294.006 230.113 294.21 230.091 294.415 230.071 C 294.621 230.051 294.827 230.033 295.035 230.021 C 295.243 230.007 295.452 229.997 295.662 229.991 C 295.872 229.983 296.084 229.981 296.296 229.981 C 296.509 229.981 296.72 229.983 296.93 229.991 C 297.141 229.997 297.35 230.007 297.557 230.021 C 297.765 230.033 297.972 230.051 298.177 230.071 C 298.383 230.091 298.587 230.113 298.79 230.14 C 298.993 230.166 299.195 230.196 299.395 230.23 C 299.596 230.263 299.795 230.299 299.993 230.338 C 300.191 230.378 300.388 230.421 300.584 230.468 C 300.78 230.514 300.974 230.564 301.167 230.617 C 301.361 230.67 301.553 230.727 301.743 230.786 C 301.934 230.845 302.124 230.908 302.312 230.974 C 302.501 231.042 302.688 231.112 302.874 231.185 C 303.06 231.256 303.245 231.334 303.428 231.414 C 303.612 231.493 303.794 231.575 303.975 231.662 C 304.157 231.748 304.337 231.837 304.515 231.93 C 304.694 232.023 304.872 232.118 305.048 232.218 C 305.225 232.317 305.4 232.42 305.573 232.526 C 305.747 232.634 305.919 232.742 306.088 232.853 C 306.258 232.963 306.425 233.076 306.59 233.191 C 306.755 233.306 306.918 233.423 307.079 233.543 C 307.24 233.662 307.398 233.784 307.554 233.908 C 307.711 234.03 307.865 234.158 308.016 234.286 C 308.168 234.413 308.318 234.544 308.465 234.676 C 308.612 234.809 308.757 234.943 308.9 235.08 C 309.043 235.217 309.184 235.357 309.322 235.498 C 309.461 235.64 309.597 235.782 309.73 235.93 C 309.864 236.074 309.996 236.223 310.125 236.373 C 310.255 236.524 310.382 236.676 310.507 236.831 C 310.633 236.986 310.756 237.142 310.876 237.302 C 310.997 237.461 311.115 237.622 311.231 237.786 C 311.347 237.949 311.461 238.114 311.573 238.283 C 311.685 238.45 311.794 238.621 311.901 238.793 C 312.009 238.965 312.114 239.139 312.217 239.316 C 312.32 239.493 312.42 239.671 312.516 239.851 C 312.612 240.03 312.705 240.21 312.795 240.391 C 312.885 240.573 312.972 240.756 313.056 240.94 C 313.14 241.125 313.22 241.309 313.297 241.496 C 313.374 241.682 313.448 241.87 313.518 242.059 C 313.589 242.248 313.657 242.439 313.721 242.629 C 313.786 242.82 313.847 243.014 313.905 243.209 C 313.963 243.401 314.018 243.597 314.069 243.793 C 314.121 243.989 314.169 244.187 314.213 244.387 C 314.258 244.584 314.3 244.785 314.338 244.986 C 314.377 245.187 314.412 245.39 314.444 245.593 C 314.477 245.797 314.506 246.001 314.531 246.207 C 314.557 246.413 314.579 246.621 314.598 246.829 C 314.618 247.037 314.634 247.246 314.646 247.457 C 314.659 247.668 314.669 247.881 314.675 248.094 C 314.681 248.282 314.684 248.471 314.685 248.661 Z M 373.804 287.031 C 375.844 286.636 377.79 286.046 379.638 285.257 C 381.488 284.467 383.2 283.529 384.78 282.439 C 386.359 281.352 387.803 280.115 389.112 278.728 L 389.112 285.776 L 406.442 285.776 L 406.442 216.453 L 389.112 216.453 L 389.112 223.501 C 387.803 222.115 386.359 220.877 384.78 219.79 C 383.2 218.701 381.488 217.762 379.638 216.973 C 377.79 216.185 375.844 215.593 373.804 215.198 C 371.761 214.803 369.624 214.606 367.391 214.606 C 364.194 214.606 361.142 215.016 358.236 215.837 C 355.327 216.658 352.563 217.889 349.946 219.528 C 347.326 221.17 344.972 223.093 342.883 225.298 C 340.793 227.503 338.97 229.99 337.41 232.758 C 335.848 235.527 334.679 238.439 333.898 241.498 C 333.12 244.555 332.729 247.758 332.729 251.106 C 332.729 254.453 333.12 257.652 333.898 260.704 C 334.679 263.757 335.848 266.663 337.41 269.418 C 338.97 272.175 340.795 274.655 342.883 276.863 C 344.972 279.07 347.326 281.002 349.946 282.657 C 352.566 284.314 355.327 285.554 358.236 286.381 C 361.142 287.209 364.194 287.624 367.391 287.624 C 369.624 287.624 371.763 287.426 373.804 287.031 Z M 362.567 269.309 C 361.023 268.883 359.557 268.244 358.171 267.39 C 356.782 266.539 355.538 265.545 354.433 264.409 C 353.328 263.273 352.365 261.995 351.547 260.573 C 350.726 259.154 350.109 257.656 349.699 256.079 C 349.289 254.502 349.085 252.847 349.085 251.112 C 349.085 249.38 349.291 247.725 349.701 246.148 C 350.114 244.571 350.73 243.073 351.553 241.654 C 352.376 240.234 353.341 238.956 354.448 237.82 C 355.555 236.684 356.806 235.691 358.197 234.837 C 359.588 233.985 361.057 233.346 362.603 232.92 C 364.149 232.494 365.773 232.281 367.474 232.281 C 369.176 232.281 370.797 232.494 372.341 232.92 C 373.885 233.346 375.352 233.987 376.738 234.839 C 378.127 235.691 379.371 236.684 380.476 237.82 C 381.581 238.956 382.543 240.236 383.364 241.656 C 384.185 243.075 384.799 244.575 385.21 246.15 C 385.62 247.727 385.824 249.384 385.824 251.117 C 385.824 252.852 385.618 254.506 385.207 256.081 C 384.795 257.659 384.178 259.156 383.355 260.576 C 382.532 261.995 381.567 263.273 380.46 264.409 C 379.353 265.545 378.104 266.541 376.714 267.393 C 375.323 268.244 373.852 268.883 372.306 269.309 C 370.76 269.735 369.138 269.948 367.437 269.948 C 365.735 269.948 364.111 269.735 362.567 269.309 Z" style="stroke: rgb(0, 0, 0);" id="object-2">
    <title>Inverted Logo</title>
  </path>
  <path d="M 272.537 264.649 L 261.641 274.63 L 250.754 284.602 L 239.861 294.586 C 239.861 294.586 235.043 299.143 233.528 301.786 C 225.629 315.535 252.257 316.396 261.707 301.741 C 262.442 300.598 262.733 299.902 263.315 299.011 C 263.906 298.117 264.542 297.238 265.226 296.38 C 265.916 295.522 266.654 294.676 267.431 293.848 C 268.205 293.023 269.03 292.225 269.897 291.445 C 270.752 290.665 271.649 289.906 272.585 289.183 C 273.527 288.445 274.499 287.74 275.51 287.062 C 276.512 286.381 277.547 285.727 278.609 285.112 C 279.677 284.482 280.766 283.891 281.894 283.33 C 283.01 282.766 284.147 282.241 285.305 281.743 C 286.472 281.248 287.645 280.789 288.842 280.372 C 290.042 279.946 291.248 279.559 292.472 279.211 C 293.693 278.863 294.938 278.557 296.186 278.284 C 297.428 278.014 298.676 277.789 299.933 277.606 C 301.187 277.426 302.459 277.282 303.713 277.192 C 304.982 277.093 306.233 277.048 307.499 277.048 C 308.756 277.048 309.989 277.093 311.177 277.192 C 312.362 277.282 313.514 277.426 314.627 277.606 C 315.74 277.789 316.826 278.014 317.87 278.284 C 318.902 278.557 319.895 278.863 320.858 279.211 C 321.815 279.559 322.727 279.946 323.594 280.372 C 324.467 280.789 325.292 281.248 326.072 281.743 C 326.849 282.241 327.575 282.766 328.262 283.33 C 328.946 283.891 329.582 284.482 330.164 285.112 C 330.755 285.727 331.289 286.381 331.772 287.062 C 332.252 287.74 332.678 288.445 333.044 289.183 C 333.419 289.906 333.74 290.665 334.004 291.445 C 334.262 292.225 334.46 293.023 334.607 293.848 C 334.754 294.67 334.832 295.522 334.859 296.38 C 334.883 297.238 334.847 298.117 334.748 299.011 C 334.643 299.902 334.475 300.817 334.241 301.741 C 334.01 302.677 333.713 303.613 333.35 304.549 C 333.35 304.549 315.8 350.068 314.756 352.771 C 313.706 355.483 314.009 354.955 302.126 354.955 C 290.246 354.955 286.775 354.955 286.775 354.955 C 286.775 354.955 123.416 354.955 110.375 354.955 C 97.334 354.955 96.752 354.934 107.699 344.983 C 116.087 337.363 118.592 335.005 118.592 335.005 L 129.485 325.033 L 140.381 315.049 L 173.048 285.133 L 183.947 275.152 L 194.837 265.183 L 211.439 249.973 L 211.445 249.973 L 227.465 235.303 L 238.361 225.319 L 249.245 215.35 L 260.141 205.369 C 260.141 205.369 265.178 200.839 266.477 198.166 C 275.663 179.308 247.535 177.454 238.298 198.208 C 237.773 199.387 237.272 200.053 236.684 200.941 C 236.093 201.835 235.463 202.717 234.773 203.575 C 234.086 204.433 233.345 205.282 232.571 206.098 C 231.797 206.929 230.975 207.73 230.108 208.507 C 229.247 209.29 228.353 210.049 227.411 210.775 C 226.478 211.504 225.5 212.212 224.495 212.89 C 223.493 213.574 222.458 214.222 221.393 214.846 C 220.325 215.467 219.23 216.061 218.111 216.616 C 216.995 217.18 215.852 217.714 214.691 218.206 C 213.53 218.698 212.36 219.16 211.163 219.58 C 209.966 220.006 208.757 220.393 207.527 220.741 C 206.309 221.083 205.061 221.392 203.822 221.665 C 202.574 221.938 201.323 222.166 200.072 222.343 C 198.809 222.532 197.543 222.667 196.289 222.763 C 195.026 222.856 193.766 222.898 192.503 222.898 C 191.246 222.898 190.019 222.856 188.825 222.763 C 187.64 222.667 186.485 222.532 185.372 222.343 C 184.259 222.166 183.179 221.938 182.138 221.665 C 181.094 221.392 180.104 221.083 179.141 220.741 C 178.19 220.393 177.281 220.006 176.405 219.58 C 175.535 219.16 174.707 218.698 173.927 218.206 C 173.153 217.714 172.427 217.18 171.743 216.616 C 171.056 216.061 170.42 215.467 169.841 214.846 C 169.25 214.222 168.713 213.574 168.23 212.89 C 167.747 212.212 167.33 211.504 166.955 210.775 C 166.586 210.049 166.262 209.29 166.001 208.507 C 165.743 207.73 165.542 206.929 165.395 206.098 C 165.248 205.282 165.167 204.433 165.14 203.575 C 165.119 202.717 165.152 201.835 165.254 200.941 C 165.359 200.053 165.527 199.135 165.758 198.208 C 165.995 197.284 166.292 196.342 166.655 195.4 C 166.655 195.4 183.362 152.077 184.403 149.374 C 185.45 146.659 185.996 145 197.876 145 C 209.756 145 213.23 145 213.23 145 C 213.23 145 376.583 145 389.624 145 C 402.665 145 403.247 145.018 392.306 154.969 C 383.918 162.589 381.41 164.947 381.41 164.947 L 370.517 174.919 L 359.624 184.903 L 326.951 214.816 L 316.055 224.8 L 305.165 234.769 L 288.563 249.979 L 288.56 249.979 L 272.537 264.649 Z M 304.145 355 C 303.509 355 304.91 355 304.145 355 Z" style="stroke: rgba(0, 0, 0, 0); stroke-width: 1;" id="object-3">
    <title>Solo Z</title>
  </path>
  <path d="M 450 250 C 450 360.456 360.456 450 250 450 C 139.544 450 50 360.456 50 250 C 50 139.544 139.544 50 250 50 C 360.456 50 450 139.544 450 250 Z M 288.56 249.979 L 288.563 249.979 L 305.165 234.769 L 316.055 224.8 L 326.951 214.816 L 359.624 184.903 L 370.517 174.919 L 381.41 164.947 C 381.41 164.947 383.918 162.589 392.306 154.969 C 403.247 145.018 402.665 145 389.624 145 C 376.583 145 213.23 145 213.23 145 C 213.23 145 209.756 145 197.876 145 C 185.996 145 185.45 146.659 184.403 149.374 C 183.362 152.077 166.655 195.4 166.655 195.4 C 166.292 196.342 165.995 197.284 165.758 198.208 C 165.527 199.135 165.359 200.053 165.254 200.941 C 165.152 201.835 165.119 202.717 165.14 203.575 C 165.167 204.433 165.248 205.282 165.395 206.098 C 165.542 206.929 165.743 207.73 166.001 208.507 C 166.262 209.29 166.586 210.049 166.955 210.775 C 167.33 211.504 167.747 212.212 168.23 212.89 C 168.713 213.574 169.25 214.222 169.841 214.846 C 170.42 215.467 171.056 216.061 171.743 216.616 C 172.427 217.18 173.153 217.714 173.927 218.206 C 174.707 218.698 175.535 219.16 176.405 219.58 C 177.281 220.006 178.19 220.393 179.141 220.741 C 180.104 221.083 181.094 221.392 182.138 221.665 C 183.179 221.938 184.259 222.166 185.372 222.343 C 186.485 222.532 187.64 222.667 188.825 222.763 C 190.019 222.856 191.246 222.898 192.503 222.898 C 193.766 222.898 195.026 222.856 196.289 222.763 C 197.543 222.667 198.809 222.532 200.072 222.343 C 201.323 222.166 202.574 221.938 203.822 221.665 C 205.061 221.392 206.309 221.083 207.527 220.741 C 208.757 220.393 209.966 220.006 211.163 219.58 C 212.36 219.16 213.53 218.698 214.691 218.206 C 215.852 217.714 216.995 217.18 218.111 216.616 C 219.23 216.061 220.325 215.467 221.393 214.846 C 222.458 214.222 223.493 213.574 224.495 212.89 C 225.5 212.212 226.478 211.504 227.411 210.775 C 228.353 210.049 229.247 209.29 230.108 208.507 C 230.975 207.73 231.797 206.929 232.571 206.098 C 233.345 205.282 234.086 204.433 234.773 203.575 C 235.463 202.717 236.093 201.835 236.684 200.941 C 237.272 200.053 237.773 199.387 238.298 198.208 C 247.535 177.454 275.663 179.308 266.477 198.166 C 265.178 200.839 260.141 205.369 260.141 205.369 L 249.245 215.35 L 238.361 225.319 L 227.465 235.303 L 211.445 249.973 L 211.439 249.973 L 194.837 265.183 L 183.947 275.152 L 173.048 285.133 L 140.381 315.049 L 129.485 325.033 L 118.592 335.005 C 118.592 335.005 116.087 337.363 107.699 344.983 C 96.752 354.934 97.334 354.955 110.375 354.955 C 123.416 354.955 286.775 354.955 286.775 354.955 C 286.775 354.955 290.246 354.955 302.126 354.955 C 314.009 354.955 313.706 355.483 314.756 352.771 C 315.8 350.068 333.35 304.549 333.35 304.549 C 333.713 303.613 334.01 302.677 334.241 301.741 C 334.475 300.817 334.643 299.902 334.748 299.011 C 334.847 298.117 334.883 297.238 334.859 296.38 C 334.832 295.522 334.754 294.67 334.607 293.848 C 334.46 293.023 334.262 292.225 334.004 291.445 C 333.74 290.665 333.419 289.906 333.044 289.183 C 332.678 288.445 332.252 287.74 331.772 287.062 C 331.289 286.381 330.755 285.727 330.164 285.112 C 329.582 284.482 328.946 283.891 328.262 283.33 C 327.575 282.766 326.849 282.241 326.072 281.743 C 325.292 281.248 324.467 280.789 323.594 280.372 C 322.727 279.946 321.815 279.559 320.858 279.211 C 319.895 278.863 318.902 278.557 317.87 278.284 C 316.826 278.014 315.74 277.789 314.627 277.606 C 313.514 277.426 312.362 277.282 311.177 277.192 C 309.989 277.093 308.756 277.048 307.499 277.048 C 306.233 277.048 304.982 277.093 303.713 277.192 C 302.459 277.282 301.187 277.426 299.933 277.606 C 298.676 277.789 297.428 278.014 296.186 278.284 C 294.938 278.557 293.693 278.863 292.472 279.211 C 291.248 279.559 290.042 279.946 288.842 280.372 C 287.645 280.789 286.472 281.248 285.305 281.743 C 284.147 282.241 283.01 282.766 281.894 283.33 C 280.766 283.891 279.677 284.482 278.609 285.112 C 277.547 285.727 276.512 286.381 275.51 287.062 C 274.499 287.74 273.527 288.445 272.585 289.183 C 271.649 289.906 270.752 290.665 269.897 291.445 C 269.03 292.225 268.205 293.023 267.431 293.848 C 266.654 294.676 265.916 295.522 265.226 296.38 C 264.542 297.238 263.906 298.117 263.315 299.011 C 262.733 299.902 262.442 300.598 261.707 301.741 C 252.257 316.396 225.629 315.535 233.528 301.786 C 235.043 299.143 239.861 294.586 239.861 294.586 L 250.754 284.602 L 261.641 274.63 L 272.537 264.649 Z M 304.145 355 C 303.509 355 304.91 355 304.145 355 Z" style="stroke: rgb(0, 0, 0);" id="object-4">
    <title>Inverted Solo Z</title>
  </path>
</svg>