<?xml version="1.0" encoding="utf-8"?>
<svg xmlns="http://www.w3.org/2000/svg" viewBox="50 50 400 400" width="400px" height="400px"><path d="M 450 250 C 450 360.456 360.456 450 250 450 C 139.544 450 50 360.456 50 250 C 50 139.544 139.544 50 250 50 C 360.456 50 450 139.544 450 250 Z M 288.56 249.979 L 288.563 249.979 L 305.165 234.769 L 316.055 224.8 L 326.951 214.816 L 359.624 184.903 L 370.517 174.919 L 381.41 164.947 C 381.41 164.947 383.918 162.589 392.306 154.969 C 403.247 145.018 402.665 145 389.624 145 C 376.583 145 213.23 145 213.23 145 C 213.23 145 209.756 145 197.876 145 C 185.996 145 185.45 146.659 184.403 149.374 C 183.362 152.077 166.655 195.4 166.655 195.4 C 166.292 196.342 165.995 197.284 165.758 198.208 C 165.527 199.135 165.359 200.053 165.254 200.941 C 165.152 201.835 165.119 202.717 165.14 203.575 C 165.167 204.433 165.248 205.282 165.395 206.098 C 165.542 206.929 165.743 207.73 166.001 208.507 C 166.262 209.29 166.586 210.049 166.955 210.775 C 167.33 211.504 167.747 212.212 168.23 212.89 C 168.713 213.574 169.25 214.222 169.841 214.846 C 170.42 215.467 171.056 216.061 171.743 216.616 C 172.427 217.18 173.153 217.714 173.927 218.206 C 174.707 218.698 175.535 219.16 176.405 219.58 C 177.281 220.006 178.19 220.393 179.141 220.741 C 180.104 221.083 181.094 221.392 182.138 221.665 C 183.179 221.938 184.259 222.166 185.372 222.343 C 186.485 222.532 187.64 222.667 188.825 222.763 C 190.019 222.856 191.246 222.898 192.503 222.898 C 193.766 222.898 195.026 222.856 196.289 222.763 C 197.543 222.667 198.809 222.532 200.072 222.343 C 201.323 222.166 202.574 221.938 203.822 221.665 C 205.061 221.392 206.309 221.083 207.527 220.741 C 208.757 220.393 209.966 220.006 211.163 219.58 C 212.36 219.16 213.53 218.698 214.691 218.206 C 215.852 217.714 216.995 217.18 218.111 216.616 C 219.23 216.061 220.325 215.467 221.393 214.846 C 222.458 214.222 223.493 213.574 224.495 212.89 C 225.5 212.212 226.478 211.504 227.411 210.775 C 228.353 210.049 229.247 209.29 230.108 208.507 C 230.975 207.73 231.797 206.929 232.571 206.098 C 233.345 205.282 234.086 204.433 234.773 203.575 C 235.463 202.717 236.093 201.835 236.684 200.941 C 237.272 200.053 237.773 199.387 238.298 198.208 C 247.535 177.454 275.663 179.308 266.477 198.166 C 265.178 200.839 260.141 205.369 260.141 205.369 L 249.245 215.35 L 238.361 225.319 L 227.465 235.303 L 211.445 249.973 L 211.439 249.973 L 194.837 265.183 L 183.947 275.152 L 173.048 285.133 L 140.381 315.049 L 129.485 325.033 L 118.592 335.005 C 118.592 335.005 116.087 337.363 107.699 344.983 C 96.752 354.934 97.334 354.955 110.375 354.955 C 123.416 354.955 286.775 354.955 286.775 354.955 C 286.775 354.955 290.246 354.955 302.126 354.955 C 314.009 354.955 313.706 355.483 314.756 352.771 C 315.8 350.068 333.35 304.549 333.35 304.549 C 333.713 303.613 334.01 302.677 334.241 301.741 C 334.475 300.817 334.643 299.902 334.748 299.011 C 334.847 298.117 334.883 297.238 334.859 296.38 C 334.832 295.522 334.754 294.67 334.607 293.848 C 334.46 293.023 334.262 292.225 334.004 291.445 C 333.74 290.665 333.419 289.906 333.044 289.183 C 332.678 288.445 332.252 287.74 331.772 287.062 C 331.289 286.381 330.755 285.727 330.164 285.112 C 329.582 284.482 328.946 283.891 328.262 283.33 C 327.575 282.766 326.849 282.241 326.072 281.743 C 325.292 281.248 324.467 280.789 323.594 280.372 C 322.727 279.946 321.815 279.559 320.858 279.211 C 319.895 278.863 318.902 278.557 317.87 278.284 C 316.826 278.014 315.74 277.789 314.627 277.606 C 313.514 277.426 312.362 277.282 311.177 277.192 C 309.989 277.093 308.756 277.048 307.499 277.048 C 306.233 277.048 304.982 277.093 303.713 277.192 C 302.459 277.282 301.187 277.426 299.933 277.606 C 298.676 277.789 297.428 278.014 296.186 278.284 C 294.938 278.557 293.693 278.863 292.472 279.211 C 291.248 279.559 290.042 279.946 288.842 280.372 C 287.645 280.789 286.472 281.248 285.305 281.743 C 284.147 282.241 283.01 282.766 281.894 283.33 C 280.766 283.891 279.677 284.482 278.609 285.112 C 277.547 285.727 276.512 286.381 275.51 287.062 C 274.499 287.74 273.527 288.445 272.585 289.183 C 271.649 289.906 270.752 290.665 269.897 291.445 C 269.03 292.225 268.205 293.023 267.431 293.848 C 266.654 294.676 265.916 295.522 265.226 296.38 C 264.542 297.238 263.906 298.117 263.315 299.011 C 262.733 299.902 262.442 300.598 261.707 301.741 C 252.257 316.396 225.629 315.535 233.528 301.786 C 235.043 299.143 239.861 294.586 239.861 294.586 L 250.754 284.602 L 261.641 274.63 L 272.537 264.649 Z M 304.145 355 C 303.509 355 304.91 355 304.145 355 Z" style="stroke: rgb(0, 0, 0);" id="object-4"><title>Inverted Solo Z</title></path></svg>