<?xml version="1.0" encoding="utf-8"?>
<svg xmlns="http://www.w3.org/2000/svg" viewBox="100 145 300 210" width="300px" height="210px"><path d="M 272.537 264.649 L 261.641 274.63 L 250.754 284.602 L 239.861 294.586 C 239.861 294.586 235.043 299.143 233.528 301.786 C 225.629 315.535 252.257 316.396 261.707 301.741 C 262.442 300.598 262.733 299.902 263.315 299.011 C 263.906 298.117 264.542 297.238 265.226 296.38 C 265.916 295.522 266.654 294.676 267.431 293.848 C 268.205 293.023 269.03 292.225 269.897 291.445 C 270.752 290.665 271.649 289.906 272.585 289.183 C 273.527 288.445 274.499 287.74 275.51 287.062 C 276.512 286.381 277.547 285.727 278.609 285.112 C 279.677 284.482 280.766 283.891 281.894 283.33 C 283.01 282.766 284.147 282.241 285.305 281.743 C 286.472 281.248 287.645 280.789 288.842 280.372 C 290.042 279.946 291.248 279.559 292.472 279.211 C 293.693 278.863 294.938 278.557 296.186 278.284 C 297.428 278.014 298.676 277.789 299.933 277.606 C 301.187 277.426 302.459 277.282 303.713 277.192 C 304.982 277.093 306.233 277.048 307.499 277.048 C 308.756 277.048 309.989 277.093 311.177 277.192 C 312.362 277.282 313.514 277.426 314.627 277.606 C 315.74 277.789 316.826 278.014 317.87 278.284 C 318.902 278.557 319.895 278.863 320.858 279.211 C 321.815 279.559 322.727 279.946 323.594 280.372 C 324.467 280.789 325.292 281.248 326.072 281.743 C 326.849 282.241 327.575 282.766 328.262 283.33 C 328.946 283.891 329.582 284.482 330.164 285.112 C 330.755 285.727 331.289 286.381 331.772 287.062 C 332.252 287.74 332.678 288.445 333.044 289.183 C 333.419 289.906 333.74 290.665 334.004 291.445 C 334.262 292.225 334.46 293.023 334.607 293.848 C 334.754 294.67 334.832 295.522 334.859 296.38 C 334.883 297.238 334.847 298.117 334.748 299.011 C 334.643 299.902 334.475 300.817 334.241 301.741 C 334.01 302.677 333.713 303.613 333.35 304.549 C 333.35 304.549 315.8 350.068 314.756 352.771 C 313.706 355.483 314.009 354.955 302.126 354.955 C 290.246 354.955 286.775 354.955 286.775 354.955 C 286.775 354.955 123.416 354.955 110.375 354.955 C 97.334 354.955 96.752 354.934 107.699 344.983 C 116.087 337.363 118.592 335.005 118.592 335.005 L 129.485 325.033 L 140.381 315.049 L 173.048 285.133 L 183.947 275.152 L 194.837 265.183 L 211.439 249.973 L 211.445 249.973 L 227.465 235.303 L 238.361 225.319 L 249.245 215.35 L 260.141 205.369 C 260.141 205.369 265.178 200.839 266.477 198.166 C 275.663 179.308 247.535 177.454 238.298 198.208 C 237.773 199.387 237.272 200.053 236.684 200.941 C 236.093 201.835 235.463 202.717 234.773 203.575 C 234.086 204.433 233.345 205.282 232.571 206.098 C 231.797 206.929 230.975 207.73 230.108 208.507 C 229.247 209.29 228.353 210.049 227.411 210.775 C 226.478 211.504 225.5 212.212 224.495 212.89 C 223.493 213.574 222.458 214.222 221.393 214.846 C 220.325 215.467 219.23 216.061 218.111 216.616 C 216.995 217.18 215.852 217.714 214.691 218.206 C 213.53 218.698 212.36 219.16 211.163 219.58 C 209.966 220.006 208.757 220.393 207.527 220.741 C 206.309 221.083 205.061 221.392 203.822 221.665 C 202.574 221.938 201.323 222.166 200.072 222.343 C 198.809 222.532 197.543 222.667 196.289 222.763 C 195.026 222.856 193.766 222.898 192.503 222.898 C 191.246 222.898 190.019 222.856 188.825 222.763 C 187.64 222.667 186.485 222.532 185.372 222.343 C 184.259 222.166 183.179 221.938 182.138 221.665 C 181.094 221.392 180.104 221.083 179.141 220.741 C 178.19 220.393 177.281 220.006 176.405 219.58 C 175.535 219.16 174.707 218.698 173.927 218.206 C 173.153 217.714 172.427 217.18 171.743 216.616 C 171.056 216.061 170.42 215.467 169.841 214.846 C 169.25 214.222 168.713 213.574 168.23 212.89 C 167.747 212.212 167.33 211.504 166.955 210.775 C 166.586 210.049 166.262 209.29 166.001 208.507 C 165.743 207.73 165.542 206.929 165.395 206.098 C 165.248 205.282 165.167 204.433 165.14 203.575 C 165.119 202.717 165.152 201.835 165.254 200.941 C 165.359 200.053 165.527 199.135 165.758 198.208 C 165.995 197.284 166.292 196.342 166.655 195.4 C 166.655 195.4 183.362 152.077 184.403 149.374 C 185.45 146.659 185.996 145 197.876 145 C 209.756 145 213.23 145 213.23 145 C 213.23 145 376.583 145 389.624 145 C 402.665 145 403.247 145.018 392.306 154.969 C 383.918 162.589 381.41 164.947 381.41 164.947 L 370.517 174.919 L 359.624 184.903 L 326.951 214.816 L 316.055 224.8 L 305.165 234.769 L 288.563 249.979 L 288.56 249.979 L 272.537 264.649 Z M 304.145 355 C 303.509 355 304.91 355 304.145 355 Z" style="stroke: rgba(0, 0, 0, 0); stroke-width: 1;" id="object-3"><title>Solo Z</title></path></svg>